<?xml version="1.0" encoding="utf-8"?>
<!-- Generator: Adobe Illustrator 18.1.0, SVG Export Plug-In . SVG Version: 6.00 Build 0)  -->
<svg version="1.1" id="Main_Type" xmlns="http://www.w3.org/2000/svg" xmlns:xlink="http://www.w3.org/1999/xlink" x="0px" y="0px"
	 viewBox="0 0 440 200" enable-background="new 0 0 440 200" xml:space="preserve">
<g id="SPLINE">
	<path fill="none" stroke="#000000" stroke-width="0" stroke-linecap="round" stroke-linejoin="round" stroke-miterlimit="10" d="
		M126.3,115.7L126.3,115.7l-1.3,0c0,0,0,0-0.1,0.1c0.1,0.1,0.2,0.2,0.3,0.4C125.6,116,125.9,115.8,126.3,115.7z"/>
</g>
<g id="SPLINE_1_">
	<path fill="none" stroke="#000000" stroke-width="0" stroke-linecap="round" stroke-linejoin="round" stroke-miterlimit="10" d="
		M109.1,101.5C109.1,101.5,109.2,101.5,109.1,101.5C109.2,101.5,109.2,101.5,109.1,101.5L109.1,101.5z"/>
</g>
<g id="SPLINE_2_">
	<path fill="none" stroke="#000000" stroke-width="0" stroke-linecap="round" stroke-linejoin="round" stroke-miterlimit="10" d="
		M73,77.9c3.7-3.5,7.4-7,11.2-10.4l1.2-5.7c-4.6-3.3-8.9-7-12.7-11.1c5.1-4.3,10.2-8.7,15.3-13c-4.3-4.4-7.9-9.4-10.5-15.4
		c-5.1,3.9-10.3,7.9-15.4,11.8c2.6,6.4,6.2,11.9,10.5,16.6c-5.1,4.3-10.2,8.7-15.3,13C61.8,69.1,67.2,73.7,73,77.9z"/>
</g>
<g id="SPLINE_3_">
	<path fill="none" stroke="#000000" stroke-width="0" stroke-linecap="round" stroke-linejoin="round" stroke-miterlimit="10" d="
		M392.5,134.2c6.5-4.8,13-9.5,19-14.8c-4.8-4.4-9.5-8.9-14.3-13.3c-5.9,4.9-12.3,9.4-18.7,13.8C383.2,124.7,387.8,129.5,392.5,134.2
		z"/>
</g>
<g id="SPLINE_4_">
	<path fill="none" stroke="#000000" stroke-width="0" stroke-linecap="round" stroke-linejoin="round" stroke-miterlimit="10" d="
		M80.2,133.8c-4.6,5.1-9.1,10.2-13.7,15.2c6,5.2,11.6,10.9,16.3,17.5c4.5-5.4,9-10.9,13.5-16.3C91.6,144,86.1,138.7,80.2,133.8z"/>
</g>
<g id="SPLINE_5_">
	<path fill="none" stroke="#000000" stroke-width="0" stroke-linecap="round" stroke-linejoin="round" stroke-miterlimit="10" d="
		M116.6,125.8c0.7-3.8,3.6-7.2,7.6-9.2c0.2-0.3,0.5-0.5,0.7-0.8c0,0,0,0-0.1-0.1h-0.6l0.1-0.6c-4.5-5.1-9.6-9.6-15.2-13.6
		c-1.9,2.1-3.8,4.2-5.6,6.3l-0.6,2.7l-1.1,5.2h-5.3h-0.1c-0.6,0.7-1.2,1.3-1.8,2c-0.9-0.7-1.7-1.3-2.6-2h-9.8h-8l1.6-7.9l0.6-2.9
		c0,0-0.1-0.1-0.1-0.1c0.1-0.1,0.1-0.1,0.2-0.2l4.4-21.3c-2.7-1.7-5.3-3.5-7.9-5.4c-5,4.7-10.1,9.4-15.1,14.1
		c-5.9-4.6-11.3-9.5-15.9-15.3c5.1-4.3,10.2-8.7,15.3-13c-4.3-5.1-8-10.9-10.5-17.8c-5.1,3.9-10.2,7.8-15.3,11.7
		C34,64.9,37.6,71.2,42,76.7c-5.1,4.3-10.2,8.7-15.3,13c4.7,6.2,10.2,11.5,16.1,16.4c5-4.7,10.1-9.4,15.1-14.1
		c5.9,4.5,12.1,8.7,18.4,12.8c-4.9,5-9.9,10.1-14.8,15.1c6.4,4.5,12.8,8.9,18.7,13.8c4.8-5.4,9.7-10.8,14.5-16.1
		c5.9,4.5,11.3,9.5,15.9,15.3c-4.8,5.8-9.6,11.5-14.3,17.3c4.4,5.9,8,12.5,10.5,20.3c4.8-6.1,9.5-12.3,14.3-18.4
		c-2.5-7.3-6.2-13.6-10.5-19.1C112.6,130.6,114.6,128.2,116.6,125.8z"/>
</g>
<g id="SPLINE_6_">
	<path fill="none" stroke="#000000" stroke-width="0" stroke-linecap="round" stroke-linejoin="round" stroke-miterlimit="10" d="
		M105.9,47.2c3.9-3.6,7.8-7.3,11.7-10.9c-5.5-3.2-10.7-6.7-15.2-10.9c-4.8,4.1-9.7,8.2-14.5,12.3c3.5,3.6,7.4,6.7,11.6,9.6H105.9z"
		/>
</g>
<g id="SPLINE_7_">
	<path fill="none" stroke="#000000" stroke-width="0" stroke-linecap="round" stroke-linejoin="round" stroke-miterlimit="10" d="
		M138.4,47.2h0.7c-1.4-0.7-2.9-1.4-4.3-2.1c-1.2,1.2-2.4,2.4-3.6,3.6c2.4,0.8,4.4,2,6.1,3.6L138.4,47.2z"/>
</g>
<g id="SPLINE_8_">
	<path fill="none" stroke="#000000" stroke-width="0" stroke-linecap="round" stroke-linejoin="round" stroke-miterlimit="10" d="
		M1.6,80.5c2.5,8.2,6.1,15.3,10.5,21.5c4.8-4.1,9.6-8.2,14.5-12.3c-4.4-5.9-8-12.5-10.5-20.3C11.3,73.1,6.5,76.8,1.6,80.5z"/>
</g>
<g id="SPLINE_9_">
	<path fill="none" stroke="#000000" stroke-width="0" stroke-linecap="round" stroke-linejoin="round" stroke-miterlimit="10" d="
		M28.5,119.5c6,5.2,12.5,10,19,14.8c4.7-4.8,9.3-9.5,14-14.3c-6.4-4.5-12.8-8.9-18.7-13.8C38,110.6,33.2,115,28.5,119.5z"/>
</g>
<g id="SPLINE_10_">
	<path fill="none" stroke="#000000" stroke-width="0" stroke-linecap="round" stroke-linejoin="round" stroke-miterlimit="10" d="
		M333.3,115.5l-2.4,11.7l-1.1,5.2c4.5-5.6,9.8-10.4,15.5-14.8c-0.5-0.6-1.1-1.2-1.6-1.8c-1.5,0.2-3.1,0.3-4.8,0.3
		C337.4,116.1,335.3,116,333.3,115.5z"/>
</g>
<g id="SPLINE_11_">
	<path fill="none" stroke="#000000" stroke-width="0" stroke-linecap="round" stroke-linejoin="round" stroke-miterlimit="10" d="
		M408.5,57.6c-5.1-3.9-10.2-7.8-15.3-11.7c-2.6,6.9-6.2,12.7-10.5,17.8c5.1,4.3,10.2,8.6,15.3,13C402.4,71.2,406,64.9,408.5,57.6z"
		/>
</g>
<g id="SPLINE_12_">
	<path fill="none" stroke="#000000" stroke-width="0" stroke-linecap="round" stroke-linejoin="round" stroke-miterlimit="10" d="
		M382.7,63.7c-5.1-4.3-10.2-8.7-15.3-13c4.3-4.7,7.9-10.2,10.5-16.6c-5.1-3.9-10.3-7.9-15.4-11.8c-2.7,6-6.3,11-10.5,15.4
		c5.1,4.3,10.2,8.7,15.3,13c-4.5,5-9.8,9.2-15.5,13.1c4.5,0.7,8,2.6,10.4,5.5c1.6,2,2.6,4.3,3.1,7.1c0.6,0.5,1.2,1.1,1.7,1.6
		C372.8,73.7,378.2,69.1,382.7,63.7z"/>
</g>
<g id="SPLINE_13_">
	<path fill="none" stroke="#000000" stroke-width="0" stroke-linecap="round" stroke-linejoin="round" stroke-miterlimit="10" d="
		M423.9,69.4c-2.5,7.8-6.1,14.5-10.5,20.3c4.8,4.1,9.6,8.2,14.5,12.3c4.4-6.2,8.1-13.3,10.5-21.5C433.5,76.8,428.7,73.1,423.9,69.4z
		"/>
</g>
<g id="SPLINE_14_">
	<path fill="none" stroke="#000000" stroke-width="0" stroke-linecap="round" stroke-linejoin="round" stroke-miterlimit="10" d="
		M329.8,132.5h-0.8c0.2,0.2,0.3,0.4,0.5,0.6c-4.4,5.5-8,11.7-10.5,19.1c4.8,6.1,9.5,12.3,14.3,18.4c2.5-7.8,6.1-14.5,10.5-20.3
		c-4.8-5.8-9.6-11.5-14.3-17.3C329.5,132.8,329.6,132.6,329.8,132.5z"/>
</g>
<g id="SPLINE_15_">
	<path fill="none" stroke="#000000" stroke-width="0" stroke-linecap="round" stroke-linejoin="round" stroke-miterlimit="10" d="
		M322.4,36.3c4.8,4.4,9.5,8.9,14.3,13.3c5.6-3.5,10.8-7.4,15.3-12c-4.8-4.1-9.7-8.2-14.5-12.3C333.1,29.6,327.9,33.1,322.4,36.3z"/>
</g>
<g id="SPLINE_16_">
	<path fill="none" stroke="#000000" stroke-width="0" stroke-linecap="round" stroke-linejoin="round" stroke-miterlimit="10" d="
		M288,53.9c2.8,3.2,5.7,6.3,8.5,9.5c0.6,0,1.2,0,1.9,0c3.8,0,7.8,0.1,11.4,1.1c3.1-1.7,6.3-3.4,9.4-5.1c-4.7-4.8-9.3-9.5-14-14.3
		C299.3,47.9,293.5,50.8,288,53.9z"/>
</g>
<g id="SPLINE_17_">
	<path fill="none" stroke="#000000" stroke-width="0" stroke-linecap="round" stroke-linejoin="round" stroke-miterlimit="10" d="
		M343.7,150.2c4.5,5.4,9,10.9,13.5,16.3c4.7-6.6,10.3-12.3,16.3-17.5c-4.6-5.1-9.1-10.2-13.7-15.2
		C353.9,138.7,348.3,144,343.7,150.2z"/>
</g>
<g id="SPLINE_18_">
	<path fill="none" stroke="#000000" stroke-width="0" stroke-linecap="round" stroke-linejoin="round" stroke-miterlimit="10" d="
		M382.1,92.1c-5-4.7-10.1-9.4-15.1-14.1c-0.5,0.4-1,0.7-1.5,1.1c0,2-0.2,4.2-0.6,6.5l-1.8,8.9c-0.6,2.8-1.3,5.3-2.2,7.5
		c1,1,1.9,2,2.9,3c-2.9,1.9-5.8,3.8-8.7,5.8c-1.3,1.2-2.6,2.1-4.2,2.9c-1.9,1.3-3.7,2.7-5.5,4.1c4.8,5.4,9.6,10.7,14.5,16.1
		c5.9-4.9,12.3-9.4,18.7-13.8c-4.9-5-9.9-10.1-14.8-15.1C369.9,100.7,376.2,96.6,382.1,92.1c5,4.7,10,9.4,15.1,14.1
		c5.9-4.9,11.5-10.2,16.1-16.4c-5.1-4.3-10.2-8.6-15.3-13C393.4,82.5,388,87.5,382.1,92.1z"/>
</g>
<g id="SPLINE_19_">
	<path fill="none" stroke="#000000" stroke-width="0" stroke-linecap="round" stroke-linejoin="round" stroke-miterlimit="10" d="
		M323.5,63.8L323.5,63.8h12.4h5.8c2.3-0.4,4.2-0.4,5.4-0.4c1.7,0,3.2,0.1,4.7,0.4c-5-4.7-10.1-9.4-15.1-14.1
		c-5.6,3.5-11.6,6.6-17.5,9.8C320.6,60.9,322.1,62.4,323.5,63.8z"/>
</g>
<g id="SPLINE_20_">
	<path fill="none" stroke="#000000" stroke-width="0" stroke-linecap="round" stroke-linejoin="round" stroke-miterlimit="10" d="
		M57.8,92.1c5-4.7,10.1-9.4,15.1-14.1c-5.8-4.2-11.1-8.8-15.7-14.2c-5.1,4.3-10.2,8.7-15.3,13C46.5,82.5,52,87.5,57.8,92.1z"/>
</g>
<g id="HATCH">
	<path d="M57.8,92.1c5-4.7,10.1-9.4,15.1-14.1c-5.8-4.2-11.1-8.8-15.7-14.2c-5.1,4.3-10.2,8.7-15.3,13C46.5,82.5,52,87.5,57.8,92.1z
		"/>
</g>
<g id="SPLINE_21_">
	<path fill="none" stroke="#000000" stroke-width="0" stroke-linecap="round" stroke-linejoin="round" stroke-miterlimit="10" d="
		M57.9,92c-5,4.7-10.1,9.4-15.1,14.1c5.9,4.9,12.3,9.4,18.7,13.8c4.9-5,9.9-10.1,14.8-15.1C70,100.7,63.8,96.6,57.9,92z"/>
</g>
<g id="HATCH_1_">
	<path d="M57.9,92c-5,4.7-10.1,9.4-15.1,14.1c5.9,4.9,12.3,9.4,18.7,13.8c4.9-5,9.9-10.1,14.8-15.1C70,100.7,63.8,96.6,57.9,92z"/>
</g>
<g id="SPLINE_22_">
	<path fill="none" stroke="#000000" stroke-width="0" stroke-linecap="round" stroke-linejoin="round" stroke-miterlimit="10" d="
		M94.7,117.6c-4.8,5.4-9.7,10.8-14.5,16.1c5.9,4.9,11.5,10.2,16.1,16.4c4.8-5.8,9.6-11.5,14.3-17.3
		C106,127.1,100.6,122.2,94.7,117.6z"/>
</g>
<g id="HATCH_2_">
	<path d="M94.7,117.6c-4.8,5.4-9.7,10.8-14.5,16.1c5.9,4.9,11.5,10.2,16.1,16.4c4.8-5.8,9.6-11.5,14.3-17.3
		C106,127.1,100.6,122.2,94.7,117.6z"/>
</g>
<g id="SPLINE_23_">
	<path fill="none" stroke="#000000" stroke-width="0" stroke-linecap="round" stroke-linejoin="round" stroke-miterlimit="10" d="
		M363.7,104.8c4.9,5,9.9,10.1,14.8,15.1c6.4-4.5,12.8-8.9,18.7-13.8c-5-4.7-10.1-9.4-15.1-14.1C376.2,96.6,369.9,100.7,363.7,104.8z
		"/>
</g>
<g id="HATCH_3_">
	<path d="M363.7,104.8c4.9,5,9.9,10.1,14.8,15.1c6.4-4.5,12.8-8.9,18.7-13.8c-5-4.7-10.1-9.4-15.1-14.1
		C376.2,96.6,369.9,100.7,363.7,104.8z"/>
</g>
<g id="SPLINE_24_">
	<path fill="none" stroke="#000000" stroke-width="0" stroke-linecap="round" stroke-linejoin="round" stroke-miterlimit="10" d="
		M439.6,79.7c-5.1-3.9-10.2-7.8-15.3-11.7c-5.1-3.9-10.2-7.8-15.3-11.7c-5.1-3.9-10.2-7.8-15.3-11.6c-5.1-3.9-10.2-7.8-15.3-11.7
		c-5.1-3.9-10.2-7.8-15.4-11.7c-5.1-3.9-10.2-7.8-15.3-11.7c-0.3,0.7-0.6,1.3-1,2c-0.1,0.2-0.2,0.4-0.3,0.6
		c-0.3,0.5-0.5,0.9-0.8,1.4c-0.1,0.2-0.2,0.4-0.3,0.5c-0.4,0.6-0.7,1.2-1.1,1.8c-0.4,0.6-0.8,1.2-1.2,1.7c-0.1,0.2-0.3,0.3-0.4,0.5
		c-0.3,0.4-0.6,0.8-0.9,1.2c-0.1,0.2-0.3,0.3-0.4,0.5c-0.4,0.5-0.9,1.1-1.3,1.6c0,0,0,0,0,0c-0.5,0.5-0.9,1-1.4,1.5
		c-0.1,0.2-0.3,0.3-0.4,0.4c-0.4,0.4-0.7,0.7-1.1,1.1c-4.6,4.4-10,8.1-15.8,11.3c-0.5,0.3-0.9,0.5-1.4,0.8c-0.2,0.1-0.4,0.2-0.5,0.3
		c-1.3,0.7-2.5,1.4-3.8,2c-0.2,0.1-0.4,0.2-0.6,0.3c-0.5,0.2-1,0.5-1.4,0.7c-0.2,0.1-0.4,0.2-0.6,0.3c-1.3,0.7-2.6,1.3-3.9,1.9
		c-0.2,0.1-0.4,0.2-0.6,0.3c-0.5,0.2-1,0.5-1.5,0.7c-0.2,0.1-0.4,0.2-0.6,0.3c-0.6,0.3-1.2,0.6-1.7,0.8c0,0-0.1,0-0.1,0.1
		c-5.9,2.8-11.7,5.6-17.2,8.8c-0.1,0-0.1,0.1-0.2,0.1c-0.6,0.4-1.2,0.7-1.9,1.1c-0.6,0.4-1.2,0.7-1.8,1.1c-0.2,0.1-0.4,0.2-0.5,0.3
		c-0.4,0.3-0.9,0.6-1.3,0.8c-0.2,0.1-0.4,0.2-0.6,0.4c-0.6,0.4-1.1,0.8-1.7,1.1c0,0-0.1,0.1-0.1,0.1c-0.1,0.1-0.2,0.2-0.3,0.2
		c-1.3-1.6-2.6-3.2-4.1-4.8l-2.2-2.4l-2.8,1.6c-1.7,0.9-3.3,1.9-5,2.9h-3.1h-4.2c-0.1-0.1-0.2-0.1-0.2-0.2c1.4-3.3,2.6-6.6,3.8-9.9
		l1-3l-2.7-1.7c-2.1-1.3-4.2-2.5-6.4-3.7l-2.9-1.5l-2.1,2.4c-2.3,2.6-4.6,5.4-6.7,8.2c-0.7-0.3-1.4-0.5-2-0.8
		c-0.6-0.2-1.3-0.5-2-0.7c0.2-3.5,0.2-7.1,0.2-10.6l-0.1-3.2l-3.2-0.7c-2.5-0.5-5-1-7.3-1.3l-3.2-0.4l-1.1,3
		c-1.3,3.3-2.4,6.7-3.5,10c-0.6,0-1.1,0-1.7,0c-0.2,0-0.3,0-0.5,0c-0.7,0-1.4,0-2.2,0c-1.1-3.4-2.2-6.8-3.5-10l-1.2-3l-3.2,0.4
		c-2.4,0.3-4.9,0.7-7.3,1.3l-3.1,0.7l-0.1,3.2c-0.1,3.6,0,7.1,0.2,10.6c-0.7,0.2-1.4,0.5-2.1,0.7c-0.6,0.2-1.2,0.5-2,0.8
		c-2.1-2.8-4.4-5.6-6.7-8.2l-2.1-2.4L181,37c-2.2,1.1-4.4,2.4-6.5,3.7l-2.7,1.7l1,3c1.2,3.5,2.4,6.7,3.8,9.9
		c-0.1,0.1-0.2,0.1-0.2,0.2h-1.1h-6.1c-1.6-1-3.2-1.9-4.9-2.9l-1.2-0.6l1-4.9h-8h-12.4h-2c-2-1-4-2-6.1-2.9c0,0-0.1,0-0.1,0
		c-0.6-0.3-1.2-0.6-1.8-0.9c-0.2-0.1-0.4-0.2-0.6-0.3c-0.5-0.2-1-0.5-1.5-0.7c-0.2-0.1-0.4-0.2-0.6-0.3c-1.3-0.6-2.6-1.3-3.9-1.9
		c-0.2-0.1-0.4-0.2-0.6-0.3c-0.5-0.2-1-0.5-1.4-0.7c-0.2-0.1-0.4-0.2-0.6-0.3c-1.3-0.7-2.6-1.3-3.8-2c-0.2-0.1-0.4-0.2-0.5-0.3
		c-0.5-0.3-0.9-0.5-1.4-0.8c-5.8-3.3-11.1-6.9-15.8-11.4c-0.4-0.3-0.7-0.7-1.1-1.1c-0.2-0.2-0.3-0.3-0.4-0.5c-0.5-0.5-0.9-1-1.4-1.5
		c0,0,0,0,0-0.1c-0.5-0.5-0.9-1-1.3-1.5c-0.1-0.2-0.3-0.3-0.4-0.5c-0.3-0.4-0.6-0.8-0.9-1.2c-0.1-0.2-0.3-0.3-0.4-0.5
		c-0.4-0.6-0.8-1.1-1.2-1.7c0,0,0,0,0,0c-0.4-0.6-0.8-1.2-1.1-1.8c-0.1-0.2-0.2-0.4-0.3-0.6c-0.3-0.5-0.5-0.9-0.8-1.4
		c-0.1-0.2-0.2-0.4-0.3-0.6c-0.3-0.6-0.7-1.3-1-2c-5.1,3.9-10.2,7.8-15.3,11.7C71.8,25.1,66.7,29,61.6,33
		c-5.1,3.9-10.2,7.8-15.3,11.7c-5.1,3.9-10.2,7.8-15.3,11.6c-5.1,3.9-10.2,7.8-15.3,11.7c-5.1,3.9-10.2,7.8-15.3,11.7
		c2.5,8.9,6.3,16.4,11,23c0,0.1,0.1,0.1,0.2,0.2c1.1,1.5,2.2,2.9,3.3,4.3c0.2,0.2,0.4,0.4,0.5,0.6c0.4,0.5,0.8,1,1.3,1.5
		c0.2,0.2,0.4,0.4,0.6,0.7c0.5,0.6,1.1,1.2,1.7,1.8c0.1,0.1,0.2,0.2,0.3,0.3c0.6,0.6,1.1,1.2,1.7,1.8c0.2,0.2,0.4,0.4,0.7,0.7
		c0.4,0.4,0.9,0.9,1.3,1.3c0.2,0.2,0.5,0.4,0.7,0.6c0.6,0.5,1.1,1.1,1.7,1.6c0.2,0.1,0.3,0.3,0.5,0.4c0.6,0.5,1.1,1,1.7,1.5
		c0.1,0.1,0.2,0.2,0.3,0.2c6,5.2,12.5,10,19,14.8c0.7,0.5,1.5,1.1,2.2,1.6c0.2,0.1,0.3,0.2,0.5,0.4c0.6,0.4,1.2,0.9,1.8,1.3
		c0.2,0.1,0.4,0.3,0.6,0.4c1.5,1.1,2.9,2.2,4.4,3.3c0.2,0.1,0.4,0.3,0.6,0.4c0.6,0.4,1.1,0.9,1.7,1.3c0.2,0.1,0.4,0.3,0.6,0.4
		c1.4,1.1,2.8,2.3,4.2,3.4c0.2,0.2,0.4,0.3,0.6,0.5c0.5,0.4,1,0.9,1.5,1.3c6.5,5.6,12.6,11.8,17.5,19.1c0,0,0.1,0.1,0.1,0.1
		c0.4,0.5,0.7,1.1,1.1,1.6c0.1,0.2,0.2,0.3,0.3,0.5c0.3,0.6,0.7,1.1,1,1.7c0,0,0.1,0.1,0.1,0.1c0.3,0.6,0.7,1.1,1,1.7
		c0.1,0.2,0.2,0.3,0.3,0.5c0.3,0.6,0.6,1.2,0.9,1.8c0,0,0,0.1,0.1,0.1c0.3,0.6,0.6,1.2,0.9,1.8c0.1,0.2,0.2,0.3,0.2,0.5
		c0.3,0.6,0.6,1.2,0.8,1.9c0,0,0,0.1,0,0.1c0.3,0.6,0.5,1.3,0.8,1.9c0.1,0.2,0.1,0.4,0.2,0.5c0.3,0.7,0.5,1.3,0.7,2c0,0,0,0,0,0.1
		c0.2,0.7,0.5,1.4,0.7,2.1c0.1,0.2,0.1,0.4,0.2,0.6c0.2,0.7,0.4,1.4,0.6,2.2c4.8-6.2,9.6-12.4,14.3-18.6c4.8-6.2,9.5-12.3,14.3-18.5
		c3.3-4.3,6.6-8.6,9.9-12.9c0.6,0.1,1.2,0.1,1.8,0.1h27.8c0.1,0.2,0.3,0.5,0.4,0.7c-2.4,2.6-4.7,5.3-7,8l-2,2.5l2,2.5
		c1.5,1.9,3,3.8,4.8,5.7l2.2,2.4l2.8-1.6c3.1-1.7,6.2-3.6,9.1-5.5c0.6,0.5,1.1,1,1.6,1.4c0.5,0.4,1.1,0.9,1.7,1.4
		c-1.4,3.3-2.6,6.6-3.8,9.9l-1,3l2.7,1.7c2.1,1.3,4.2,2.6,6.4,3.7l2.9,1.5l2.1-2.4c2.3-2.6,4.5-5.4,6.7-8.2c0.7,0.3,1.4,0.5,2,0.8
		c0.6,0.2,1.3,0.5,2,0.7c-0.2,3.5-0.2,7.1-0.2,10.6l0.1,3.2l3.2,0.7c2.5,0.5,4.9,1,7.3,1.3l3.2,0.4l1.1-3c1.3-3.3,2.4-6.6,3.5-10
		c0.6,0,1.1,0,1.7,0c0.2,0,0.3,0,0.5,0c0.7,0,1.4,0,2.2,0c1.1,3.4,2.2,6.8,3.5,10l1.2,3l3.2-0.4c2.4-0.3,4.9-0.7,7.3-1.3l3.1-0.7
		l0-3.2c0.1-3.6,0-7.1-0.2-10.6c0.7-0.2,1.4-0.5,2.1-0.7c0.5-0.2,1.2-0.5,2-0.8c2.1,2.8,4.4,5.6,6.7,8.2l2.1,2.4l2.8-1.4
		c2.2-1.1,4.4-2.4,6.5-3.7l2.7-1.7l-1-3c-1.2-3.4-2.4-6.7-3.8-9.9c0.6-0.5,1.1-0.9,1.6-1.3l0.1-0.1c0.6-0.5,1.1-0.9,1.6-1.4
		c2.9,1.9,5.9,3.7,9.1,5.4l2.8,1.5l2.2-2.3c1.8-2,3.4-3.9,4.8-5.7l1.9-2.5l-2-2.5c-2.2-2.8-4.6-5.4-7-8c0.1-0.2,0.3-0.5,0.4-0.7
		h30.7c1.6,0,3.1-0.2,4.6-0.5c3.4,4.4,6.8,8.9,10.3,13.3c9.5,12.4,19.1,24.7,28.6,37.1c0.2-0.7,0.4-1.5,0.6-2.2
		c0.1-0.2,0.1-0.4,0.2-0.6c0.2-0.7,0.5-1.4,0.7-2.1c0,0,0,0,0-0.1c0.2-0.7,0.5-1.4,0.7-2c0.1-0.2,0.1-0.4,0.2-0.5
		c0.3-0.7,0.5-1.3,0.8-1.9c0,0,0-0.1,0-0.1c0.3-0.6,0.6-1.3,0.8-1.9c0.1-0.2,0.2-0.3,0.2-0.5c0.3-0.6,0.6-1.2,0.9-1.8
		c0,0,0-0.1,0.1-0.1c0.3-0.6,0.6-1.2,0.9-1.8c0.1-0.2,0.2-0.3,0.3-0.5c0.3-0.6,0.6-1.1,1-1.7c0,0,0.1-0.1,0.1-0.1
		c0.3-0.6,0.7-1.1,1-1.7c0.1-0.2,0.2-0.3,0.3-0.5c0.4-0.5,0.7-1.1,1.1-1.6c0,0,0.1-0.1,0.1-0.1c5-7.3,11-13.4,17.5-19.1
		c0.5-0.4,1-0.9,1.5-1.3c0.2-0.2,0.4-0.3,0.6-0.5c1.4-1.2,2.8-2.3,4.2-3.4c0.2-0.2,0.4-0.3,0.6-0.5c0.6-0.4,1.1-0.9,1.7-1.3
		c0.2-0.1,0.4-0.3,0.6-0.4c1.5-1.1,2.9-2.2,4.4-3.3c0.2-0.1,0.4-0.3,0.5-0.4c0.6-0.5,1.2-0.9,1.8-1.4c0.1-0.1,0.3-0.2,0.4-0.3
		c0.7-0.5,1.5-1.1,2.2-1.6c6.5-4.8,13-9.6,19-14.8c0.1-0.1,0.2-0.2,0.3-0.2c0.6-0.5,1.1-1,1.7-1.5c0.2-0.2,0.3-0.3,0.5-0.5
		c0.6-0.5,1.1-1,1.7-1.6c0.2-0.2,0.5-0.4,0.7-0.7c0.4-0.4,0.9-0.8,1.3-1.3c0.2-0.2,0.4-0.4,0.7-0.7c0.6-0.6,1.1-1.1,1.7-1.7
		c0.1-0.1,0.2-0.2,0.3-0.3c0.6-0.6,1.1-1.2,1.7-1.8c0.2-0.2,0.4-0.4,0.6-0.7c0.4-0.5,0.8-1,1.2-1.5c0.2-0.2,0.4-0.4,0.5-0.7
		c1.1-1.4,2.3-2.8,3.3-4.3c0.1-0.1,0.1-0.1,0.2-0.2c0,0,0,0,0,0C433.3,96.1,437.1,88.6,439.6,79.7z"/>
</g>
<g id="SPLINE_25_">
	<path fill="none" stroke="#000000" stroke-width="0" stroke-linecap="round" stroke-linejoin="round" stroke-miterlimit="10" d="
		M279.3,77.6c0.1-0.2,0.3-0.5,0.4-0.7c0-0.1,0.1-0.1,0.1-0.2c0-0.1,0.1-0.1,0.1-0.2c0.2-0.3,0.4-0.6,0.6-0.9
		c0.2-0.3,0.4-0.6,0.7-0.8c0.1-0.1,0.1-0.2,0.2-0.2c3.4-3.6,8.4-4.8,17-4.8c0.8,0,1.5,0,2.2,0c0.7,0,1.3,0,1.9,0.1
		c10,0.5,12.9,3.5,11.9,12.9c0,0.1,0,0.2,0,0.2c-0.1,1.2-0.4,2.6-0.6,4.1c-0.1,0.8-0.3,1.7-0.5,2.6c-0.5,2.5-1.1,4.7-1.6,6.6
		c-1.1,3.6-2.5,6.3-4.3,8.3c-0.2,0.2-0.5,0.5-0.7,0.7c-0.1,0.1-0.1,0.1-0.2,0.2c-0.4,0.3-0.7,0.6-1.1,0.9c-2.4,1.7-5.5,2.5-9.7,2.9
		c-0.3,0-0.6,0-0.9,0.1c-0.2,0-0.5,0-0.7,0c0,0-0.1,0-0.1,0c-0.2,0-0.5,0-0.7,0c-0.1,0-0.2,0-0.3,0c-0.2,0-0.4,0-0.6,0
		c-0.2,0-0.5,0-0.7,0c-0.4,0-0.9,0-1.3,0c-1.6,0-3,0-4.3-0.1c-0.5,0-1-0.1-1.4-0.1c-3.6-0.4-6.1-1.3-7.8-2.8
		c-0.3-0.3-0.5-0.6-0.8-0.9c-0.2-0.3-0.4-0.6-0.6-0.9c-0.1-0.1-0.1-0.2-0.2-0.3c-0.9-2-1.1-4.6-0.8-8.1c0-0.5,0.1-0.9,0.2-1.4
		c0.2-1.5,0.5-3.2,0.9-5c0.2-1.1,0.5-2.1,0.7-3.1c0-0.1,0.1-0.3,0.1-0.4c0.7-2.6,1.4-4.9,2.2-6.8c0.1-0.3,0.3-0.6,0.4-0.8
		C278.9,78.3,279.1,77.9,279.3,77.6z"/>
</g>
<g id="SPLINE_26_">
	<path fill="none" stroke="#000000" stroke-width="0" stroke-linecap="round" stroke-linejoin="round" stroke-miterlimit="10" d="
		M270.6,54.3l1.6-0.9l1.2,1.4c1.4,1.6,2.7,3.1,3.9,4.7c0.2,0.3,0.5,0.6,0.7,0.9l0,0.1l1.1,1.4l-1.2,1.4c-0.2,0.2-0.3,0.4-0.5,0.6
		h-0.9h-1.1h-1c0.5-0.6,0.9-1.1,1.4-1.7c0.1-0.1,0.2-0.3,0.4-0.4c-0.2-0.3-0.5-0.6-0.7-0.9c-1.2-1.6-2.5-3.1-3.8-4.5
		c-0.8,0.4-1.6,0.9-2.4,1.4l0.2-1l0.2-1.1h-0.1h-1.5C269,55.2,269.8,54.7,270.6,54.3z"/>
</g>
<g id="SPLINE_27_">
	<path fill="none" stroke="#000000" stroke-width="0" stroke-linecap="round" stroke-linejoin="round" stroke-miterlimit="10" d="
		M258.9,62.2h1.1h0.7h1l0,0.2l-1.7,8h6.2h1.6h1h1h1.2h1h0.2h1h1.2h0.1l-0.8,3.8l-0.1,0.4l-0.2,0.9l-0.2,1.1l0,0.2l-0.2,1.1l-0.3,1.4
		l-0.1,0.4h-0.5h-0.6h-8.5h-1.2h-3.4L254.5,97c-0.4,2.3-0.2,3.3,2.1,3.3c3.2,0,3.6-2.4,4.3-5l0.5-2.1h6.7h3.2l-0.7,3.5
		c-0.6,3-1.4,5.4-2.5,7.2c-0.2,0.3-0.4,0.6-0.5,0.9c-0.2,0.3-0.4,0.6-0.7,0.9c-0.3,0.3-0.6,0.6-0.9,0.9c-2.7,2.4-6.4,3.1-12,3.1
		c-5,0-9.3-0.4-11.3-3.1c-0.2-0.3-0.4-0.6-0.5-0.9c-0.1-0.3-0.2-0.6-0.3-0.9c-0.5-1.5-0.5-3.4,0-5.9l4-19.1h-4.1h-0.5l0.2-0.8
		l0.3-1.2l1.5-7.3h1.6h3l1.7-8.2H258.9z"/>
</g>
<g id="SPLINE_28_">
	<path fill="none" stroke="#000000" stroke-width="0" stroke-linecap="round" stroke-linejoin="round" stroke-miterlimit="10" d="
		M217.1,65.4c-7.8,0-8.8,1.6-9.4,4.7c-0.9,4.4,1.1,4.6,4.9,4.9l5.9,0.4c8.7,0.7,13.7,1.6,15.9,4.4c1.2,1.5,1.6,3.5,1.5,6.3
		c-0.1,1.5-0.3,3.2-0.8,5.2c-1,5-1.9,9.9-6.3,13.3c-0.4,0.3-0.8,0.6-1.2,0.9c-0.5,0.3-1,0.6-1.5,0.9c-3.8,1.9-9.5,3.1-18.1,3.1
		c-7.5,0-13.6-0.1-17-3.1c-0.3-0.3-0.6-0.6-0.8-0.9c-0.2-0.3-0.4-0.6-0.6-0.9c-0.2-0.3-0.4-0.7-0.6-1.1c-1.2-2.7-1.3-6.7-0.1-12.5
		h3.1h10.7c-1.2,5.8,0.7,6.4,7.7,6.4c6.8,0,9.1-0.4,10-5.1c1-4.8,0.2-4.7-6.5-5.2l-3.1-0.2c-9.9-0.7-16.8-0.9-18.1-7.8
		c-0.4-2.2-0.3-5.1,0.5-9c0.5-2.5,1.2-4.6,1.9-6.4c4.2-9.8,12.5-10.5,24.4-10.5c10.3,0,19.3,0.2,19.2,10.5c0,1.5-0.2,3.1-0.6,5
		l-0.5,2.3h-1.6H224C225.2,65.4,222.9,65.4,217.1,65.4z"/>
</g>
<g id="SPLINE_29_">
	<path fill="none" stroke="#000000" stroke-width="0" stroke-linecap="round" stroke-linejoin="round" stroke-miterlimit="10" d="
		M174.6,44.9l-0.6-1.7l1.5-1c2.1-1.3,4.2-2.6,6.3-3.6l1.6-0.8l1.2,1.4c2.4,2.8,4.8,5.7,7,8.7l0.4,0.5l0.6-0.3c0.9-0.4,1.9-0.7,2.6-1
		c0.8-0.3,1.7-0.6,2.6-0.9l0.6-0.2l0-0.7c-0.2-3.7-0.3-7.4-0.2-11.2l0-1.8l1.8-0.4c2.4-0.5,4.8-1,7.1-1.3l1.8-0.2l0.7,1.7
		c1.3,3.4,2.5,7,3.6,10.6l0.2,0.6l0.7,0c0.8,0,1.5-0.1,2.2-0.1c0.2,0,0.3,0,0.5,0c0.9,0,1.7,0,2.7,0.1l0.7,0l0.2-0.6
		c1.1-3.6,2.3-7.1,3.6-10.6l0.7-1.7l1.8,0.2c2.3,0.3,4.7,0.7,7.1,1.3l1.8,0.4l0,1.8c0.1,3.7,0,7.5-0.2,11.2l0,0.7l0.6,0.2
		c1,0.3,1.8,0.6,2.6,0.9c0.8,0.3,1.6,0.6,2.6,1l0.6,0.3l0.4-0.5c2.3-3,4.6-5.9,7-8.7l1.2-1.4l1.6,0.9c2.1,1.1,4.2,2.3,6.3,3.6l1.6,1
		l-0.6,1.7c-1.2,3.5-2.5,7-4,10.4l-0.1,0.2h-0.8h-0.9h-0.8c1.6-3.7,3.1-7.6,4.4-11.4c-2-1.3-4-2.4-6.1-3.5c-3,3.4-5.8,7-8.5,10.6
		c-1.6-0.7-3.1-1.4-4.8-2c-1.6-0.6-3.2-1.1-4.9-1.6c0.3-4.5,0.4-9,0.3-13.5c-2.3-0.5-4.6-0.9-7-1.2c-1.6,4.2-3.1,8.5-4.3,12.8
		c-1.7-0.1-3.4-0.2-5.1-0.2c-1.7,0-3.4,0.1-5.1,0.2c-1.3-4.3-2.7-8.6-4.3-12.8c-2.3,0.3-4.6,0.7-6.9,1.2c-0.1,4.6,0,9.1,0.3,13.5
		c-1.7,0.5-3.3,1-4.9,1.6c-1.6,0.6-3.2,1.2-4.8,2c-2.7-3.6-5.5-7.2-8.4-10.6c-2.1,1.1-4.1,2.2-6.1,3.5c1.3,3.9,2.8,7.7,4.4,11.4
		h-0.8h-0.9h-0.8l-0.1-0.2C177.1,52,175.8,48.6,174.6,44.9z"/>
</g>
<g id="SPLINE_30_">
	<path fill="none" stroke="#000000" stroke-width="0" stroke-linecap="round" stroke-linejoin="round" stroke-miterlimit="10" d="
		M162.4,55.6l0.1-0.5l0.1-0.4l0.2-0.7l0.7,0.4c0.8,0.4,1.6,0.9,2.3,1.3h-1.5H163h-0.5L162.4,55.6L162.4,55.6z"/>
</g>
<g id="SPLINE_31_">
	<path fill="none" stroke="#000000" stroke-width="0" stroke-linecap="round" stroke-linejoin="round" stroke-miterlimit="10" d="
		M156.7,70.4h2.6h0.4h1.2h0.4l0.1-0.6l0-0.2l0.2-0.9l0.2-1.1l0.2-0.9l1-4.6h1.1h1.9c0,0,6,0,6,0h1.3h0.7h1.1h0.2l-1.7,8.1l0,0.1h0.1
		h12.9h1.3l-1.8,8.6l-0.1,0.7h-7.6h-1.2h-5.5l-2,9.7l-0.5,2.2l-1.1,5.4c-0.4,2.3-0.2,3.3,2.1,3.3c3.2,0,3.6-2.4,4.3-5l0.5-2.1h6.9h3
		l-0.7,3.5c-0.6,2.7-1.3,4.9-2.1,6.6c-0.3,0.5-0.6,1-0.9,1.5c-0.2,0.3-0.4,0.6-0.7,0.9c-0.3,0.3-0.6,0.6-0.9,0.9
		c-1.8,1.6-4.1,2.5-7.2,2.9c-1.4,0.2-3,0.3-4.8,0.3c-1.8,0-3.5-0.1-5.1-0.3c-2.2-0.3-4.1-0.9-5.4-2c0,0-0.1-0.1-0.1-0.1
		c-0.2-0.2-0.4-0.4-0.6-0.7c0,0-0.1-0.1-0.1-0.1c-0.2-0.3-0.4-0.6-0.5-0.9c-0.1-0.3-0.2-0.6-0.3-0.9c-0.3-0.9-0.4-2-0.3-3.3
		c0-0.2,0-0.5,0.1-0.8c0-0.4,0.1-0.7,0.2-1.1c0-0.2,0.1-0.5,0.1-0.8l0.6-2.7l0.7-3.3l0.3-1.3l0.2-0.7l1-4.6l1.2-6l0.1-0.5h-2h-0.6
		h-1.9h-0.1l0.1-0.4l0.1-0.7l0.2-0.9l0.1-0.7l0-0.1l0.1-0.7l0.2-0.9L156.7,70.4z"/>
</g>
<g id="POLYLINE">
	
		<polyline fill="none" stroke="#000000" stroke-width="0" stroke-linecap="round" stroke-linejoin="round" stroke-miterlimit="10" points="
		142.1,61.6 143.7,53.7 151.7,53.7 152.2,53.7 154,53.7 154,53.7 156.1,53.7 155.9,54.9 155.6,56.1 155.1,58.5 154.7,60.5 
		154.3,62.5 154.1,63.5 153.9,63.5 143.4,63.5 142.4,63.5 141.7,63.5 142.1,61.6 	"/>
</g>
<g id="POLYLINE_1_">
	
		<polyline fill="none" stroke="#000000" stroke-width="0" stroke-linecap="round" stroke-linejoin="round" stroke-miterlimit="10" points="
		140.3,70.4 142.2,70.4 150,70.4 152.7,70.4 151.8,74.5 151.6,75.4 151.5,76.1 151.4,76.2 151.3,77 151.1,77.8 151,78.5 150.9,78.6 
		149.4,86.2 149.3,86.3 149.3,86.7 149.1,87.4 148.9,88.3 148.8,89.1 148.8,89.2 148.6,90 148.4,90.9 146.8,98.4 146.7,99.4 
		146.6,99.6 146.5,100.1 146.5,100.3 146.3,101 146.1,102 146,102.7 145.5,104.7 145.4,105.6 145.2,106.2 145.2,106.5 145,107.3 
		144.6,109.1 142.6,109.1 141.9,109.1 141,109.1 140.2,109.1 140.1,109.1 139.4,109.1 138.5,109.1 132.3,109.1 132.8,106.5 
		132.9,106.2 133,105.6 133.2,104.7 135.3,94.5 136.1,90.7 140.3,70.5 140.3,70.4 	"/>
</g>
<g id="SPLINE_32_">
	<path fill="none" stroke="#000000" stroke-width="0" stroke-linecap="round" stroke-linejoin="round" stroke-miterlimit="10" d="
		M134.8,45.1c1.4,0.7,2.9,1.4,4.3,2.1h-0.7l-1.1,5.1c-1.7-1.6-3.7-2.8-6.1-3.6C132.4,47.5,133.6,46.3,134.8,45.1z"/>
</g>
<g id="SPLINE_33_">
	<path fill="none" stroke="#000000" stroke-width="0" stroke-linecap="round" stroke-linejoin="round" stroke-miterlimit="10" d="
		M120.8,53.7c1.9,0,3.7,0.1,5.2,0.4c5.3,0.9,8.3,3.2,9.5,7.5c0.5,1.7,0.6,3.8,0.5,6.1c-0.1,1.5-0.3,3.1-0.6,4.8
		c-0.1,0.5-0.2,1-0.3,1.5c-1.3,6.2-2.8,10.8-5.1,14.1c-0.3,0.4-0.6,0.8-0.9,1.1c-3,3.6-7.3,5.3-13.9,5.6c-0.9,0.1-1.9,0.1-2.9,0.1
		H99.5l0,0l-2.9,14.2H82.7h-0.5l0.1-0.3L84.9,96l1.9-9l4.4-21.2l1.3-6l1.2-6h5.2h11.4H120.8z"/>
</g>
<g id="SPLINE_34_">
	<path fill="none" stroke="#000000" stroke-width="0" stroke-linecap="round" stroke-linejoin="round" stroke-miterlimit="10" d="
		M106.8,170.5c-2.5-7.8-6.1-14.5-10.5-20.3c-4.5,5.4-9,10.9-13.5,16.3c-4.7-6.6-10.3-12.3-16.3-17.5c4.6-5.1,9.1-10.2,13.7-15.2
		c-5.9-4.9-12.3-9.4-18.7-13.8c-4.7,4.8-9.3,9.5-14,14.3c-6.5-4.8-13-9.5-19-14.8c4.8-4.4,9.5-8.9,14.3-13.3
		c-5.9-4.9-11.5-10.2-16.1-16.4c-4.8,4.1-9.6,8.2-14.5,12.3C7.7,95.7,4.1,88.7,1.6,80.5c4.8-3.7,9.6-7.4,14.5-11.1
		c2.5,7.8,6.1,14.5,10.5,20.3c5.1-4.3,10.2-8.7,15.3-13c-4.4-5.5-8-11.7-10.5-19.1c5.1-3.9,10.2-7.8,15.3-11.7
		c2.6,6.9,6.2,12.7,10.5,17.8c5.1-4.3,10.2-8.7,15.3-13C68.3,46,64.6,40.5,62,34.1c5.1-3.9,10.3-7.9,15.4-11.8
		c2.7,6,6.3,11,10.5,15.4c4.8-4.1,9.7-8.2,14.5-12.3c4.5,4.2,9.6,7.8,15.2,10.9c-3.9,3.6-7.8,7.3-11.7,10.9h-6.3
		c-4.2-2.9-8.1-6-11.6-9.6c-5.1,4.3-10.2,8.7-15.3,13c3.8,4.2,8.1,7.8,12.7,11.1l-1.2,5.7c-3.7,3.5-7.4,7-11.2,10.4
		c2.6,1.9,5.2,3.7,7.9,5.4l-4.4,21.3c-0.1,0.1-0.1,0.1-0.2,0.2c0,0,0.1,0.1,0.1,0.1l-0.6,2.9l-1.6,7.9h8H92c0.9,0.7,1.8,1.3,2.6,2
		c0.6-0.7,1.2-1.3,1.8-2h0.1h5.3l1.1-5.2l0.6-2.7c1.9-2.1,3.8-4.2,5.6-6.3c0,0,0,0,0,0h0.1c0,0,0,0,0,0c5.5,4,10.7,8.5,15.2,13.6
		l-0.1,0.6h0.6c0,0,0,0,0.1,0.1c0,0,0,0,0.1-0.1h1.3v0c-0.4,0.1-0.7,0.3-1.1,0.4c-0.1-0.1-0.2-0.2-0.3-0.4c-0.2,0.3-0.5,0.5-0.7,0.8
		c-4.1,2-6.9,5.3-7.6,9.2c-2,2.4-4,4.8-6,7.3c4.4,5.5,8,11.7,10.5,19.1C116.3,158.2,111.6,164.4,106.8,170.5z"/>
</g>
<g id="SPLINE_35_">
	<path fill="none" stroke="#000000" stroke-width="0" stroke-linecap="round" stroke-linejoin="round" stroke-miterlimit="10" d="
		M278.1,150.5l1.1,1.4l-1.1,1.5c-1.4,1.8-2.9,3.7-4.7,5.6l-1.2,1.3l-1.6-0.9c-3.4-1.9-6.5-3.7-9.6-5.7l-0.6-0.4l-0.5,0.5
		c-0.6,0.6-1.3,1.2-2.1,1.8l0,0c-0.6,0.5-1.4,1.1-2.1,1.7l-0.5,0.4l0.3,0.6c1.4,3.4,2.7,6.8,4,10.4l0.6,1.7l-1.5,1
		c-2.1,1.3-4.2,2.6-6.3,3.6l-1.6,0.8l-1.2-1.4c-2.4-2.8-4.8-5.7-7-8.7l-0.4-0.5l-0.6,0.3c-1,0.4-1.9,0.7-2.5,1l-0.1,0
		c-0.9,0.3-1.7,0.6-2.6,0.9l-0.6,0.2l0,0.7c0.2,3.7,0.3,7.4,0.2,11.2l0,1.8l-1.8,0.4c-2.4,0.5-4.8,1-7.1,1.3l-1.8,0.2l-0.7-1.7
		c-1.3-3.4-2.5-7-3.6-10.6l-0.2-0.6l-0.7,0c-0.8,0-1.5,0.1-2.3,0.1c-0.2,0-0.3,0-0.5,0c-0.9,0-1.8,0-2.7-0.1l-0.7,0l-0.2,0.6
		c-1.1,3.6-2.3,7.1-3.6,10.6l-0.7,1.7l-1.8-0.2c-2.3-0.3-4.7-0.7-7.1-1.3l-1.8-0.4l0-1.8c-0.1-3.7,0-7.5,0.2-11.2l0-0.7l-0.6-0.2
		c-1-0.3-1.8-0.6-2.6-0.9c-0.8-0.3-1.6-0.6-2.6-1l-0.6-0.3l-0.4,0.5c-2.3,3-4.6,5.9-7,8.7l-1.2,1.4l-1.6-0.9
		c-2.1-1.1-4.2-2.3-6.3-3.6l-1.6-1l0.6-1.7c1.2-3.5,2.5-7,4-10.4l0.3-0.6l-0.5-0.4c-0.8-0.6-1.5-1.2-2.2-1.7
		c-0.7-0.5-1.3-1.1-2.1-1.8l-0.5-0.5l-0.6,0.4c-3.1,2-6.3,3.9-9.6,5.8l-1.6,0.9l-1.2-1.4c-1.7-1.9-3.2-3.7-4.7-5.6l-1.1-1.5l1.2-1.4
		c2.4-2.9,4.8-5.7,7.3-8.4l0.5-0.5l-0.4-0.6c-0.1-0.1-0.2-0.2-0.2-0.4h0.9h1h0.9c0.3,0.4,0.5,0.8,0.8,1.2c-3.1,3.2-6.1,6.6-9,10.2
		c1.4,1.9,2.9,3.7,4.5,5.4c4-2.2,7.8-4.6,11.6-7.1c1.2,1.2,2.5,2.4,3.8,3.5c1.3,1.1,2.7,2.1,4.1,3.1c-1.8,4.1-3.5,8.3-4.9,12.6
		c2,1.3,4,2.4,6.1,3.5c3-3.4,5.8-7,8.5-10.6c1.6,0.7,3.1,1.4,4.8,2c1.6,0.6,3.2,1.1,4.9,1.6c-0.3,4.5-0.4,9-0.3,13.5
		c2.3,0.5,4.6,0.9,7,1.2c1.6-4.2,3.1-8.5,4.3-12.8c1.7,0.1,3.4,0.2,5.1,0.2c1.7,0,3.4-0.1,5.1-0.2c1.3,4.3,2.7,8.6,4.3,12.8
		c2.3-0.3,4.6-0.7,6.9-1.2c0.1-4.6,0-9.1-0.3-13.5c1.7-0.5,3.3-1,4.9-1.6c1.6-0.6,3.2-1.2,4.7-2c2.7,3.6,5.5,7.2,8.4,10.6
		c2.1-1.1,4.1-2.2,6.1-3.5c-1.5-4.3-3.1-8.5-4.9-12.6c1.4-1,2.7-2,4.1-3.1c1.3-1.1,2.6-2.3,3.8-3.5c3.8,2.5,7.6,4.8,11.6,7.1
		c1.6-1.7,3.1-3.5,4.5-5.4c-2.9-3.5-5.8-6.9-9-10.1c0.3-0.4,0.5-0.8,0.8-1.2h0.9h1h0.9c-0.1,0.1-0.1,0.2-0.2,0.4l-0.4,0.6l0.5,0.5
		C273.3,144.7,275.7,147.6,278.1,150.5z"/>
</g>
<g id="POLYLINE_2_">
	
		<polyline fill="none" stroke="#000000" stroke-width="0" stroke-linecap="round" stroke-linejoin="round" stroke-miterlimit="10" points="
		250.8,146.6 250.8,149.7 248.6,149.7 248.6,142.2 250.8,142.2 250.8,145 253.6,145 253.6,142.2 255.7,142.2 255.7,149.7 
		253.6,149.7 253.6,146.6 250.8,146.6 	"/>
</g>
<g id="POLYLINE_3_">
	
		<polyline fill="none" stroke="#000000" stroke-width="0" stroke-linecap="round" stroke-linejoin="round" stroke-miterlimit="10" points="
		247.2,142.2 247.2,149.7 245,149.7 242.1,145.1 242.1,145.1 242.1,149.7 240.1,149.7 240.1,142.2 242.3,142.2 245.1,146.8 
		245.2,146.8 245.2,142.2 247.2,142.2 	"/>
</g>
<g id="SPLINE_36_">
	<path fill="none" stroke="#000000" stroke-width="0" stroke-linecap="round" stroke-linejoin="round" stroke-miterlimit="10" d="
		M232.9,149.7v-1.9h2.1v1.7c0,1.5-1.3,2-2.1,2v-0.8c0.6-0.1,0.9-0.4,0.9-1H232.9z"/>
</g>
<g id="SPLINE_37_">
	<path fill="none" stroke="#000000" stroke-width="0" stroke-linecap="round" stroke-linejoin="round" stroke-miterlimit="10" d="
		M228.5,145.6c-0.7,0-1.1,0.6-1.1,1.2v3h-2v-5.4h1.9v0.7h0c0.4-0.6,1.2-0.9,1.9-0.9c2,0,2.2,1.3,2.2,2.1v3.5h-2v-2.6
		C229.5,146.3,229.6,145.6,228.5,145.6z"/>
</g>
<g id="SPLINE_38_">
	<path fill="none" stroke="#000000" stroke-width="0" stroke-linecap="round" stroke-linejoin="round" stroke-miterlimit="10" d="
		M224.5,147c0,1.6-1.3,2.9-3.2,2.9c-1.9,0-3.1-1.2-3.1-2.9c0-1.6,1.3-2.9,3.1-2.9C223.2,144.1,224.5,145.4,224.5,147z"/>
</g>
<g id="SPLINE_39_">
	<path fill="none" stroke="#000000" stroke-width="0" stroke-linecap="round" stroke-linejoin="round" stroke-miterlimit="10" d="
		M217.1,148.4c0.2,0,0.3,0,0.5,0v1.3c-0.4,0-0.7,0.1-1.1,0.1c-1.7,0-2.1-0.4-2.1-1.9v-2.4h-1v-1.2h1v-1.6h2v1.6h1.2v1.2h-1.2v2.5
		C216.4,148.3,216.7,148.4,217.1,148.4z"/>
</g>
<g id="SPLINE_40_">
	<path fill="none" stroke="#000000" stroke-width="0" stroke-linecap="round" stroke-linejoin="round" stroke-miterlimit="10" d="
		M208.7,144.9c0.4-0.5,1-0.8,1.6-0.8c1.9,0,2.7,1.5,2.7,3c0,1.4-0.8,2.8-2.5,2.8c-0.7,0-1.3-0.3-1.7-0.7h0v2.4h-2v-7.3h1.9
		L208.7,144.9L208.7,144.9z"/>
</g>
<g id="SPLINE_41_">
	<path fill="none" stroke="#000000" stroke-width="0" stroke-linecap="round" stroke-linejoin="round" stroke-miterlimit="10" d="
		M202.7,145.6c-0.8,0-0.9,0.6-0.9,1.5v2.7h-2v-3.1c0-0.6-0.2-1-0.7-1c-0.7,0-1,0.4-1,1.5v2.6h-2v-5.4h1.9v0.7h0
		c0.4-0.5,1-0.9,1.7-0.9c0.7,0,1.4,0.2,1.7,0.9c0.5-0.6,1.1-0.9,1.9-0.9c1.9,0,2.1,1.3,2.1,2.3v3.2h-2v-3.2
		C203.5,145.9,203.2,145.6,202.7,145.6z"/>
</g>
<g id="SPLINE_42_">
	<path fill="none" stroke="#000000" stroke-width="0" stroke-linecap="round" stroke-linejoin="round" stroke-miterlimit="10" d="
		M192,145.3c-0.5,0-0.9,0.2-1,0.7h-1.8c0-0.7,0.4-1.2,0.9-1.5c0.5-0.3,1.2-0.4,1.9-0.4c1.4,0,2.8,0.3,2.8,1.8v2.4c0,0.5,0,1,0.2,1.4
		h-2c-0.1-0.2-0.1-0.3-0.1-0.5c-0.5,0.5-1.3,0.7-2,0.7c-1.1,0-2-0.5-2-1.6c0-1.8,2.1-1.6,3.5-1.9c0.3-0.1,0.5-0.2,0.5-0.5
		C193,145.4,192.4,145.3,192,145.3z"/>
</g>
<g id="POLYLINE_4_">
	
		<polyline fill="none" stroke="#000000" stroke-width="0" stroke-linecap="round" stroke-linejoin="round" stroke-miterlimit="10" points="
		183,146.6 183,149.7 180.8,149.7 180.8,142.2 183,142.2 183,145 185.8,145 185.8,142.2 187.9,142.2 187.9,149.7 185.8,149.7 
		185.8,146.6 183,146.6 	"/>
</g>
<g id="SPLINE_43_">
	<path fill="none" stroke="#000000" stroke-width="0" stroke-linecap="round" stroke-linejoin="round" stroke-miterlimit="10" d="
		M308.2,138.3c-0.4,0.1-0.8,0.2-1.2,0.2c-1.1,0.2-2.2,0.3-3.4,0.3h-14.8h-0.9h-1.9h-5.1h-6.8h-1h-0.9h-0.2h-0.8h-1h-0.9H164.8H164
		h-1h-0.9h-0.2h-0.8h-1h-6.9H148h-1.8h-0.9h-12c-0.2,0-0.4,0-0.5,0c-0.5,0-0.9,0-1.3-0.1c-7.5-0.7-13.2-5.5-13.2-11.2
		c0-4.4,3.3-8.1,8.2-10c0.3-0.1,0.5-0.2,0.8-0.3c1.2-0.4,2.6-0.7,4-0.9c0.7-0.1,1.5-0.1,2.2-0.1h15.6h1.3h2.1h0.9h0.7h0.1h0.7h0.9
		h0.7h121h0.7h0.9h0.7h0.1h0.7h0.9h8.1h1.3h12.5c0.8,0,1.5,0,2.2,0.1c0.5,0.1,1,0.1,1.5,0.2l-0.1,0.6l-1.5,7.3l-1.6,7.9h0.9h7.1h5.1
		C315.4,135.2,312.2,137.4,308.2,138.3z"/>
</g>
<g id="SPLINE_44_">
	<path fill="none" stroke="#000000" stroke-width="0" stroke-linecap="round" stroke-linejoin="round" stroke-miterlimit="10" d="
		M312.1,125.9l1.4-6.9l0.2-0.9l0.2-0.9c0,0,0.5-2.3,0.5-2.3l3.5-16.9l1.8-8.9l1.1-5.4l0.3-1.7l2.4-11.8h6.4h6l-0.9,3.7l-0.3,1.2
		l-0.3,1.3h0.6c0.1-0.2,0.2-0.4,0.3-0.7c1-1.9,2.3-3.2,3.8-4.1c0.1-0.1,0.2-0.1,0.3-0.2c2.2-1.2,4.8-1.6,7.7-1.6
		c9,0,13.3,3.9,11.5,13.8c0,0.2-0.1,0.3-0.1,0.5l-1.8,8.9c-0.3,1.3-0.6,2.5-0.9,3.6c-2.7,9.2-7.6,12.9-16.8,12.9c-0.3,0-0.6,0-0.8,0
		c-4.1-0.1-7.5-1.3-8.4-6.3h-0.6l-4.7,22.6h-0.9h-3.2h-0.9h-0.9H312.1z"/>
</g>
<g id="SPLINE_45_">
	<path fill="none" stroke="#000000" stroke-width="0" stroke-linecap="round" stroke-linejoin="round" stroke-miterlimit="10" d="
		M345.3,117.6c-5.7,4.4-11,9.2-15.5,14.8l1.1-5.2l2.4-11.7c2.1,0.5,4.1,0.6,5.6,0.6c1.7,0,3.3-0.1,4.8-0.3
		C344.2,116.4,344.7,117,345.3,117.6z"/>
</g>
<g id="SPLINE_46_">
	<path fill="none" stroke="#000000" stroke-width="0" stroke-linecap="round" stroke-linejoin="round" stroke-miterlimit="10" d="
		M427.8,102c-4.8-4.1-9.6-8.2-14.5-12.3c-4.7,6.2-10.2,11.5-16.1,16.4c4.8,4.4,9.5,8.9,14.3,13.3c-6,5.2-12.5,10-19,14.8
		c-4.7-4.8-9.3-9.5-14-14.3c-6.4,4.5-12.8,8.9-18.7,13.8c4.6,5.1,9.1,10.2,13.7,15.2c-6,5.2-11.6,10.9-16.3,17.5
		c-4.5-5.4-9-10.9-13.5-16.3c-4.4,5.9-8,12.5-10.5,20.3c-4.8-6.1-9.5-12.3-14.3-18.4c2.5-7.3,6.2-13.6,10.5-19.1
		c-0.2-0.2-0.3-0.4-0.5-0.6h0.8c-0.1,0.2-0.3,0.3-0.4,0.5c4.8,5.8,9.6,11.5,14.3,17.3c4.7-6.2,10.2-11.5,16.1-16.4
		c-4.8-5.4-9.6-10.7-14.5-16.1c1.8-1.4,3.7-2.8,5.5-4.1c1.5-0.8,2.9-1.7,4.2-2.9c2.9-2,5.8-3.9,8.7-5.8c-1-1-1.9-2-2.9-3
		c0.9-2.2,1.6-4.7,2.2-7.5l1.8-8.9c0.5-2.3,0.7-4.5,0.6-6.5c0.5-0.4,1-0.7,1.5-1.1c-0.6-0.5-1.2-1.1-1.7-1.6
		c-0.4-2.7-1.5-5.1-3.1-7.1c-2.4-2.9-5.9-4.8-10.4-5.5c5.7-3.9,11-8.1,15.5-13.1c-5.1-4.3-10.2-8.7-15.3-13
		c-4.5,4.6-9.7,8.5-15.3,12c5,4.7,10.1,9.4,15.1,14.1c-1.5-0.2-3-0.4-4.7-0.4c-1.1,0-3.1,0-5.4,0.4h-5.8h-12.4h0
		c-1.4-1.5-2.9-2.9-4.3-4.4c-3.2,1.7-6.3,3.3-9.4,5.1c-3.6-1-7.6-1.1-11.4-1.1c-0.6,0-1.2,0-1.9,0c-2.8-3.2-5.7-6.3-8.5-9.5
		c5.5-3.2,11.4-6,17.2-8.8c4.7,4.8,9.3,9.5,14,14.3c6-3.1,11.9-6.3,17.5-9.8c-4.8-4.4-9.5-8.9-14.3-13.3c5.5-3.2,10.7-6.7,15.2-10.9
		c4.8,4.1,9.7,8.2,14.5,12.3c4.3-4.4,7.9-9.4,10.5-15.4c5.1,3.9,10.3,7.9,15.4,11.8c-2.6,6.4-6.2,11.9-10.5,16.6
		c5.1,4.3,10.2,8.7,15.3,13c4.3-5.1,8-10.9,10.5-17.8c5.1,3.9,10.2,7.8,15.3,11.7c-2.5,7.3-6.2,13.6-10.5,19.1
		c-5.1-4.3-10.2-8.6-15.3-13c-4.6,5.4-10,10-15.7,14.2c5,4.7,10.1,9.4,15.1,14.1c5.9-4.6,11.3-9.5,15.9-15.3
		c5.1,4.3,10.2,8.6,15.3,13c4.4-5.9,8-12.5,10.5-20.3c4.8,3.7,9.6,7.4,14.5,11.1C435.9,88.7,432.2,95.7,427.8,102z"/>
</g>
<g id="HATCH_4_">
	<path d="M439.6,79.7c-5.1-3.9-10.2-7.8-15.3-11.7c-5.1-3.9-10.2-7.8-15.3-11.7c-5.1-3.9-10.2-7.8-15.3-11.6
		c-5.1-3.9-10.2-7.8-15.3-11.7c-5.1-3.9-10.2-7.8-15.4-11.7c-5.1-3.9-10.2-7.8-15.3-11.7c-0.3,0.7-0.6,1.3-1,2
		c-0.1,0.2-0.2,0.4-0.3,0.6c-0.3,0.5-0.5,0.9-0.8,1.4c-0.1,0.2-0.2,0.4-0.3,0.5c-0.4,0.6-0.7,1.2-1.1,1.8c-0.4,0.6-0.8,1.2-1.2,1.7
		c-0.1,0.2-0.3,0.3-0.4,0.5c-0.3,0.4-0.6,0.8-0.9,1.2c-0.1,0.2-0.3,0.3-0.4,0.5c-0.4,0.5-0.9,1.1-1.3,1.6c-0.5,0.5-1,1-1.4,1.5
		c-0.1,0.2-0.3,0.3-0.4,0.4c-0.4,0.4-0.7,0.7-1.1,1.1c-4.6,4.4-10,8.1-15.8,11.3c-0.5,0.3-0.9,0.5-1.4,0.8c-0.2,0.1-0.4,0.2-0.5,0.3
		c-1.3,0.7-2.5,1.4-3.8,2c-0.2,0.1-0.4,0.2-0.6,0.3c-0.5,0.2-1,0.5-1.4,0.7c-0.2,0.1-0.4,0.2-0.6,0.3c-1.3,0.7-2.6,1.3-3.9,1.9
		c-0.2,0.1-0.4,0.2-0.6,0.3c-0.5,0.2-1,0.5-1.5,0.7c-0.2,0.1-0.4,0.2-0.6,0.3c-0.6,0.3-1.2,0.6-1.7,0.8c-6,2.9-11.8,5.7-17.3,8.8
		c-0.1,0-0.1,0.1-0.2,0.1c-0.6,0.4-1.2,0.7-1.9,1.1c-0.6,0.4-1.2,0.7-1.8,1.1c-0.2,0.1-0.4,0.2-0.5,0.3c-0.4,0.3-0.9,0.6-1.3,0.8
		c-0.2,0.1-0.4,0.2-0.6,0.4c-0.6,0.4-1.1,0.8-1.7,1.1c-0.2,0.2-0.3,0.2-0.4,0.3c-1.3-1.6-2.6-3.2-4.1-4.8l-2.2-2.4l-2.8,1.6
		c-1.7,0.9-3.3,1.9-5,2.9h-3.1h-4.2c-0.1-0.1-0.2-0.1-0.2-0.2c1.4-3.3,2.6-6.6,3.8-9.9l1-3l-2.7-1.7c-2.1-1.3-4.2-2.5-6.4-3.7
		l-2.9-1.5l-2.1,2.4c-2.3,2.6-4.6,5.4-6.7,8.2c-0.7-0.3-1.4-0.5-2-0.8c-0.6-0.2-1.3-0.5-2-0.7c0.2-3.5,0.2-7.1,0.2-10.6l-0.1-3.2
		l-3.2-0.7c-2.5-0.5-5-1-7.3-1.3l-3.2-0.4l-1.1,3c-1.3,3.3-2.4,6.7-3.5,10c-0.6,0-1.1,0-1.7,0c-0.2,0-0.3,0-0.5,0
		c-0.7,0-1.4,0-2.2,0c-1.1-3.4-2.2-6.8-3.5-10l-1.2-3l-3.2,0.4c-2.4,0.3-4.9,0.7-7.3,1.3l-3.1,0.7l-0.1,3.2c-0.1,3.6,0,7.1,0.2,10.6
		c-0.7,0.2-1.4,0.5-2.1,0.7c-0.6,0.2-1.2,0.5-2,0.8c-2.1-2.8-4.4-5.6-6.7-8.2l-2.1-2.4L181,37c-2.2,1.1-4.4,2.4-6.5,3.7l-2.7,1.7
		l1,3c1.2,3.5,2.4,6.7,3.8,9.9c-0.1,0.1-0.2,0.1-0.2,0.2h-1.1h-6.1c-1.6-1-3.2-1.9-4.9-2.9l-1.2-0.6l1-4.9h-8h-12.4h-2
		c-2-1-4-2-6.1-2.9c-0.7-0.3-1.3-0.6-1.9-0.9c-0.2-0.1-0.4-0.2-0.6-0.3c-0.5-0.2-1-0.5-1.5-0.7c-0.2-0.1-0.4-0.2-0.6-0.3
		c-1.3-0.6-2.6-1.3-3.9-1.9c-0.2-0.1-0.4-0.2-0.6-0.3c-0.5-0.2-1-0.5-1.4-0.7c-0.2-0.1-0.4-0.2-0.6-0.3c-1.3-0.7-2.6-1.3-3.8-2
		c-0.2-0.1-0.4-0.2-0.5-0.3c-0.5-0.3-0.9-0.5-1.4-0.8c-5.8-3.3-11.1-6.9-15.8-11.4c-0.4-0.3-0.7-0.7-1.1-1.1
		c-0.2-0.2-0.3-0.3-0.4-0.5c-0.5-0.5-0.9-1-1.4-1.5c-0.5-0.6-0.9-1.1-1.4-1.6c-0.1-0.2-0.3-0.3-0.4-0.5c-0.3-0.4-0.6-0.8-0.9-1.2
		c-0.1-0.2-0.3-0.3-0.4-0.5c-0.4-0.6-0.8-1.1-1.2-1.7c-0.4-0.6-0.8-1.2-1.1-1.8c-0.1-0.2-0.2-0.4-0.3-0.6c-0.3-0.5-0.5-0.9-0.8-1.4
		c-0.1-0.2-0.2-0.4-0.3-0.6c-0.3-0.6-0.7-1.3-1-2c-5.1,3.9-10.2,7.8-15.3,11.7C71.8,25.1,66.7,29,61.6,33
		c-5.1,3.9-10.2,7.8-15.3,11.7c-5.1,3.9-10.2,7.8-15.3,11.6c-5.1,3.9-10.2,7.8-15.3,11.7c-5.1,3.9-10.2,7.8-15.3,11.7
		c2.5,8.9,6.3,16.4,11,23c0,0.1,0.1,0.1,0.2,0.2c1.1,1.5,2.2,2.9,3.3,4.3c0.2,0.2,0.4,0.4,0.5,0.6c0.4,0.5,0.8,1,1.3,1.5
		c0.2,0.2,0.4,0.4,0.6,0.7c0.5,0.6,1.1,1.2,1.7,1.8c0.1,0.1,0.2,0.2,0.3,0.3c0.6,0.6,1.1,1.2,1.7,1.8c0.2,0.2,0.4,0.4,0.7,0.7
		c0.4,0.4,0.9,0.9,1.3,1.3c0.2,0.2,0.5,0.4,0.7,0.6c0.6,0.5,1.1,1.1,1.7,1.6c0.2,0.1,0.3,0.3,0.5,0.4c0.6,0.5,1.1,1,1.7,1.5
		c0.1,0.1,0.2,0.2,0.3,0.2c6,5.2,12.5,10,19,14.8c0.7,0.5,1.5,1.1,2.2,1.6c0.2,0.1,0.3,0.2,0.5,0.4c0.6,0.4,1.2,0.9,1.8,1.3
		c0.2,0.1,0.4,0.3,0.6,0.4c1.5,1.1,2.9,2.2,4.4,3.3c0.2,0.1,0.4,0.3,0.6,0.4c0.6,0.4,1.1,0.9,1.7,1.3c0.2,0.1,0.4,0.3,0.6,0.4
		c1.4,1.1,2.8,2.3,4.2,3.4c0.2,0.2,0.4,0.3,0.6,0.5c0.5,0.4,1,0.9,1.5,1.3c6.5,5.6,12.6,11.8,17.5,19.1c0.4,0.7,0.8,1.2,1.2,1.7
		c0.1,0.2,0.2,0.3,0.3,0.5c0.3,0.6,0.7,1.1,1,1.7c0.4,0.7,0.7,1.3,1.1,1.8c0.1,0.2,0.2,0.3,0.3,0.5c0.3,0.6,0.6,1.2,0.9,1.8
		c0.4,0.7,0.7,1.3,1,1.9c0.1,0.2,0.2,0.3,0.2,0.5c0.3,0.6,0.6,1.2,0.8,1.9c0.3,0.7,0.6,1.4,0.8,2c0.1,0.2,0.1,0.4,0.2,0.5
		c0.3,0.7,0.5,1.3,0.7,2c0.3,0.8,0.5,1.5,0.7,2.2c0.1,0.2,0.1,0.4,0.2,0.6c0.2,0.7,0.4,1.4,0.6,2.2c4.8-6.2,9.6-12.4,14.3-18.6
		c4.8-6.2,9.5-12.3,14.3-18.5c3.3-4.3,6.6-8.6,9.9-12.9c0.6,0.1,1.2,0.1,1.8,0.1h27.8c0.1,0.2,0.3,0.5,0.4,0.7c-2.4,2.6-4.7,5.3-7,8
		l-2,2.5l2,2.5c1.5,1.9,3,3.8,4.8,5.7l2.2,2.4l2.8-1.6c3.1-1.7,6.2-3.6,9.1-5.5c0.6,0.5,1.1,1,1.6,1.4c0.5,0.4,1.1,0.9,1.7,1.4
		c-1.4,3.3-2.6,6.6-3.8,9.9l-1,3l2.7,1.7c2.1,1.3,4.2,2.6,6.4,3.7l2.9,1.5l2.1-2.4c2.3-2.6,4.5-5.4,6.7-8.2c0.7,0.3,1.4,0.5,2,0.8
		c0.6,0.2,1.3,0.5,2,0.7c-0.2,3.5-0.2,7.1-0.2,10.6l0.1,3.2l3.2,0.7c2.5,0.5,4.9,1,7.3,1.3l3.2,0.4l1.1-3c1.3-3.3,2.4-6.6,3.5-10
		c0.6,0,1.1,0,1.7,0c0.2,0,0.3,0,0.5,0c0.7,0,1.4,0,2.2,0c1.1,3.4,2.2,6.8,3.5,10l1.2,3l3.2-0.4c2.4-0.3,4.9-0.7,7.3-1.3l3.1-0.7
		l0-3.2c0.1-3.6,0-7.1-0.2-10.6c0.7-0.2,1.4-0.5,2.1-0.7c0.5-0.2,1.2-0.5,2-0.8c2.1,2.8,4.4,5.6,6.7,8.2l2.1,2.4l2.8-1.4
		c2.2-1.1,4.4-2.4,6.5-3.7l2.7-1.7l-1-3c-1.2-3.4-2.4-6.7-3.8-9.9c0.6-0.5,1.1-0.9,1.6-1.3c0.6-0.6,1.2-1,1.7-1.5
		c2.9,1.9,5.9,3.7,9.1,5.4l2.8,1.5l2.2-2.3c1.8-2,3.4-3.9,4.8-5.7l1.9-2.5l-2-2.5c-2.2-2.8-4.6-5.4-7-8c0.1-0.2,0.3-0.5,0.4-0.7
		h30.7c1.6,0,3.1-0.2,4.6-0.5c3.4,4.4,6.8,8.9,10.3,13.3c9.5,12.4,19.1,24.7,28.6,37.1c0.2-0.7,0.4-1.5,0.6-2.2
		c0.1-0.2,0.1-0.4,0.2-0.6c0.2-0.7,0.5-1.4,0.7-2.1c0.3-0.7,0.5-1.4,0.8-2.1c0.1-0.2,0.1-0.4,0.2-0.5c0.3-0.7,0.5-1.3,0.8-1.9
		c0.3-0.7,0.6-1.4,0.9-2c0.1-0.2,0.2-0.3,0.2-0.5c0.3-0.6,0.6-1.2,0.9-1.8c0.4-0.7,0.7-1.3,1-1.9c0.1-0.2,0.2-0.3,0.3-0.5
		c0.3-0.6,0.6-1.1,1-1.7c0.4-0.7,0.8-1.2,1.1-1.8c0.1-0.2,0.2-0.3,0.3-0.5c0.4-0.5,0.7-1.1,1.1-1.6c5-7.4,11.1-13.6,17.6-19.2
		c0.5-0.4,1-0.9,1.5-1.3c0.2-0.2,0.4-0.3,0.6-0.5c1.4-1.2,2.8-2.3,4.2-3.4c0.2-0.2,0.4-0.3,0.6-0.5c0.6-0.4,1.1-0.9,1.7-1.3
		c0.2-0.1,0.4-0.3,0.6-0.4c1.5-1.1,2.9-2.2,4.4-3.3c0.2-0.1,0.4-0.3,0.5-0.4c0.6-0.5,1.2-0.9,1.8-1.4c0.1-0.1,0.3-0.2,0.4-0.3
		c0.7-0.5,1.5-1.1,2.2-1.6c6.5-4.8,13-9.6,19-14.8c0.1-0.1,0.2-0.2,0.3-0.2c0.6-0.5,1.1-1,1.7-1.5c0.2-0.2,0.3-0.3,0.5-0.5
		c0.6-0.5,1.1-1,1.7-1.6c0.2-0.2,0.5-0.4,0.7-0.7c0.4-0.4,0.9-0.8,1.3-1.3c0.2-0.2,0.4-0.4,0.7-0.7c0.6-0.6,1.1-1.1,1.7-1.7
		c0.1-0.1,0.2-0.2,0.3-0.3c0.6-0.6,1.1-1.2,1.7-1.8c0.2-0.2,0.4-0.4,0.6-0.7c0.4-0.5,0.8-1,1.2-1.5c0.2-0.2,0.4-0.4,0.5-0.7
		c1.1-1.4,2.3-2.8,3.3-4.3c0.1-0.1,0.1-0.1,0.2-0.2C433.3,96.1,437.1,88.6,439.6,79.7z M279.3,77.6c0.1-0.2,0.3-0.5,0.4-0.7
		c0.1-0.2,0.2-0.3,0.2-0.3c0.2-0.3,0.4-0.6,0.6-0.9c0.2-0.3,0.4-0.6,0.7-0.8c0.1-0.1,0.1-0.2,0.2-0.2c3.4-3.6,8.4-4.8,17-4.8
		c0.8,0,1.5,0,2.2,0c0.7,0,1.3,0,1.9,0.1c10,0.5,12.9,3.5,11.9,12.9c0,0.1,0,0.2,0,0.2c-0.1,1.2-0.4,2.6-0.6,4.1
		c-0.1,0.8-0.3,1.7-0.5,2.6c-0.5,2.5-1.1,4.7-1.6,6.6c-1.1,3.6-2.5,6.3-4.3,8.3c-0.2,0.2-0.5,0.5-0.7,0.7c-0.1,0.1-0.1,0.1-0.2,0.2
		c-0.4,0.3-0.7,0.6-1.1,0.9c-2.4,1.7-5.5,2.5-9.7,2.9c-0.3,0-0.6,0-0.9,0.1c-0.2,0-0.5,0-0.7,0c-0.4,0-0.6,0-0.9,0
		c-0.1,0-0.2,0-0.3,0c-0.2,0-0.4,0-0.6,0c-0.2,0-0.5,0-0.7,0c-0.4,0-0.9,0-1.3,0c-1.6,0-3,0-4.3-0.1c-0.5,0-1-0.1-1.4-0.1
		c-3.6-0.4-6.1-1.3-7.8-2.8c-0.3-0.3-0.5-0.6-0.8-0.9c-0.2-0.3-0.4-0.6-0.6-0.9c-0.1-0.1-0.1-0.2-0.2-0.3c-0.9-2-1.1-4.6-0.8-8.1
		c0-0.5,0.1-0.9,0.2-1.4c0.2-1.5,0.5-3.2,0.9-5c0.2-1.1,0.5-2.1,0.7-3.1c0-0.1,0.1-0.3,0.1-0.4c0.7-2.6,1.4-4.9,2.2-6.8
		c0.1-0.3,0.3-0.6,0.4-0.8C278.9,78.3,279.1,77.9,279.3,77.6z M270.6,54.3l1.6-0.9l1.2,1.4c1.4,1.6,2.7,3.1,3.9,4.7
		c0.2,0.3,0.5,0.6,0.7,0.9c0,0.1,1.1,1.5,1.1,1.5l-1.2,1.4c-0.2,0.2-0.3,0.4-0.5,0.6h-0.9h-1.1h-1c0.5-0.6,0.9-1.1,1.4-1.7
		c0.1-0.1,0.2-0.3,0.4-0.4c-0.2-0.3-0.5-0.6-0.7-0.9c-1.2-1.6-2.5-3.1-3.8-4.5c-0.8,0.4-1.6,0.9-2.4,1.4l0.2-1l0.2-1.1
		c-0.1,0-1.5,0-1.5,0C269,55.2,269.8,54.7,270.6,54.3z M258.9,62.2h1.1h0.7h1l0,0.2l-1.7,8h6.2h1.6h1h1h1.2h1h0.2h1h1.2
		c0.1,0-0.7,3.8-0.7,3.8l-0.1,0.4l-0.2,0.9l-0.2,1.1l0,0.2l-0.2,1.1l-0.3,1.4l-0.1,0.4h-0.5h-0.6h-8.5h-1.2h-3.4L254.5,97
		c-0.4,2.3-0.2,3.3,2.1,3.3c3.2,0,3.6-2.4,4.3-5l0.5-2.1h6.7h3.2l-0.7,3.5c-0.6,3-1.4,5.4-2.5,7.2c-0.2,0.3-0.4,0.6-0.5,0.9
		c-0.2,0.3-0.4,0.6-0.7,0.9c-0.3,0.3-0.6,0.6-0.9,0.9c-2.7,2.4-6.4,3.1-12,3.1c-5,0-9.3-0.4-11.3-3.1c-0.2-0.3-0.4-0.6-0.5-0.9
		c-0.1-0.3-0.2-0.6-0.3-0.9c-0.5-1.5-0.5-3.4,0-5.9l4-19.1h-4.1h-0.5l0.2-0.8l0.3-1.2l1.5-7.3h1.6h3l1.7-8.2H258.9z M217.1,65.4
		c-7.8,0-8.8,1.6-9.4,4.7c-0.9,4.4,1.1,4.6,4.9,4.9l5.9,0.4c8.7,0.7,13.7,1.6,15.9,4.4c1.2,1.5,1.6,3.5,1.5,6.3
		c-0.1,1.5-0.3,3.2-0.8,5.2c-1,5-1.9,9.9-6.3,13.3c-0.4,0.3-0.8,0.6-1.2,0.9c-0.5,0.3-1,0.6-1.5,0.9c-3.8,1.9-9.5,3.1-18.1,3.1
		c-7.5,0-13.6-0.1-17-3.1c-0.3-0.3-0.6-0.6-0.8-0.9c-0.2-0.3-0.4-0.6-0.6-0.9c-0.2-0.3-0.4-0.7-0.6-1.1c-1.2-2.7-1.3-6.7-0.1-12.5
		h3.1h10.7c-1.2,5.8,0.7,6.4,7.7,6.4c6.8,0,9.1-0.4,10-5.1c1-4.8,0.2-4.7-6.5-5.2l-3.1-0.2c-9.9-0.7-16.8-0.9-18.1-7.8
		c-0.4-2.2-0.3-5.1,0.5-9c0.5-2.5,1.2-4.6,1.9-6.4c4.2-9.8,12.5-10.5,24.4-10.5c10.3,0,19.3,0.2,19.2,10.5c0,1.5-0.2,3.1-0.6,5
		l-0.5,2.3h-1.6H224C225.2,65.4,222.9,65.4,217.1,65.4z M174.6,44.9l-0.6-1.7l1.5-1c2.1-1.3,4.2-2.6,6.3-3.6l1.6-0.8l1.2,1.4
		c2.4,2.8,4.8,5.7,7,8.7l0.4,0.5l0.6-0.3c0.9-0.4,1.9-0.7,2.6-1c0.8-0.3,1.7-0.6,2.6-0.9l0.6-0.2l0-0.7c-0.2-3.7-0.3-7.4-0.2-11.2
		l0-1.8l1.8-0.4c2.4-0.5,4.8-1,7.1-1.3l1.8-0.2l0.7,1.7c1.3,3.4,2.5,7,3.6,10.6l0.2,0.6l0.7,0c0.8,0,1.5-0.1,2.2-0.1
		c0.2,0,0.3,0,0.5,0c0.9,0,1.7,0,2.7,0.1l0.7,0l0.2-0.6c1.1-3.6,2.3-7.1,3.6-10.6l0.7-1.7l1.8,0.2c2.3,0.3,4.7,0.7,7.1,1.3l1.8,0.4
		l0,1.8c0.1,3.7,0,7.5-0.2,11.2l0,0.7l0.6,0.2c1,0.3,1.8,0.6,2.6,0.9c0.8,0.3,1.6,0.6,2.6,1l0.6,0.3l0.4-0.5c2.3-3,4.6-5.9,7-8.7
		l1.2-1.4l1.6,0.9c2.1,1.1,4.2,2.3,6.3,3.6l1.6,1l-0.6,1.7c-1.2,3.5-2.5,7-4,10.4l-0.1,0.2h-0.8h-0.9h-0.8c1.6-3.7,3.1-7.6,4.4-11.4
		c-2-1.3-4-2.4-6.1-3.5c-3,3.4-5.8,7-8.5,10.6c-1.6-0.7-3.1-1.4-4.8-2c-1.6-0.6-3.2-1.1-4.9-1.6c0.3-4.5,0.4-9,0.3-13.5
		c-2.3-0.5-4.6-0.9-7-1.2c-1.6,4.2-3.1,8.5-4.3,12.8c-1.7-0.1-3.4-0.2-5.1-0.2c-1.7,0-3.4,0.1-5.1,0.2c-1.3-4.3-2.7-8.6-4.3-12.8
		c-2.3,0.3-4.6,0.7-6.9,1.2c-0.1,4.6,0,9.1,0.3,13.5c-1.7,0.5-3.3,1-4.9,1.6c-1.6,0.6-3.2,1.2-4.8,2c-2.7-3.6-5.5-7.2-8.4-10.6
		c-2.1,1.1-4.1,2.2-6.1,3.5c1.3,3.9,2.8,7.7,4.4,11.4h-0.8h-0.9h-0.8l-0.1-0.2C177.1,52,175.8,48.6,174.6,44.9z M162.4,55.6l0.1-0.5
		l0.1-0.4l0.2-0.7l0.7,0.4c0.8,0.4,1.6,0.9,2.3,1.3h-1.5H163C163,55.6,162.5,55.6,162.4,55.6z M156.7,70.4h2.6h0.4h1.2h0.4l0.1-0.6
		l0-0.2l0.2-0.9l0.2-1.1l0.2-0.9l1-4.6h1.1h1.9c0,0,6,0,6,0h1.3h0.7h1.1h0.2l-1.7,8.1c0.1,0.1,13,0.1,13,0.1h1.3l-1.8,8.6l-0.1,0.7
		h-7.6h-1.2h-5.5l-2,9.7l-0.5,2.2l-1.1,5.4c-0.4,2.3-0.2,3.3,2.1,3.3c3.2,0,3.6-2.4,4.3-5l0.5-2.1h6.9h3l-0.7,3.5
		c-0.6,2.7-1.3,4.9-2.1,6.6c-0.3,0.5-0.6,1-0.9,1.5c-0.2,0.3-0.4,0.6-0.7,0.9c-0.3,0.3-0.6,0.6-0.9,0.9c-1.8,1.6-4.1,2.5-7.2,2.9
		c-1.4,0.2-3,0.3-4.8,0.3c-1.8,0-3.5-0.1-5.1-0.3c-2.2-0.3-4.1-0.9-5.4-2c-0.3-0.3-0.5-0.5-0.7-0.8c-0.3-0.4-0.5-0.7-0.6-1
		c-0.1-0.3-0.2-0.6-0.3-0.9c-0.3-0.9-0.4-2-0.3-3.3c0-0.2,0-0.5,0.1-0.8c0-0.4,0.1-0.7,0.2-1.1c0-0.2,0.1-0.5,0.1-0.8l0.6-2.7
		l0.7-3.3l0.3-1.3l0.2-0.7l1-4.6l1.2-6l0.1-0.5h-2h-0.6h-1.9c-0.1,0,0-0.4,0-0.4l0.1-0.7l0.2-0.9l0.1-0.7c0-0.1,0.2-0.9,0.2-0.9
		l0.2-0.9L156.7,70.4z M142.1,61.6l1.6-7.8h7.9h0.5h1.8c0,0,2.1,0,2.1,0l-0.2,1.1c0,0-0.3,1.2-0.3,1.2l-0.5,2.4l-0.4,2l-0.4,2
		l-0.2,1c-0.1,0-10.7,0-10.7,0h-1.1h-0.7L142.1,61.6L142.1,61.6z M140.3,70.4h1.9h7.8h2.6l-0.9,4.2l-0.2,0.9l-0.1,0.7
		c0,0.1-0.2,0.9-0.2,0.9l-0.2,0.9l-0.1,0.7c0,0.1-1.6,7.7-1.6,7.7c0,0.1-0.1,0.5-0.1,0.5l-0.2,0.8l-0.2,0.9l-0.2,0.8
		c0,0.1-0.2,0.9-0.2,0.9l-0.2,0.9l-1.6,7.6l-0.2,0.9l0,0.2l-0.1,0.5c0,0.1-0.2,0.9-0.2,0.9l-0.2,0.9l-0.2,0.8l-0.4,2l-0.2,0.9
		l-0.1,0.6l-0.1,0.3l-0.2,0.8l-0.4,1.9h-2h-0.7H141h-0.7c-0.1,0-0.9,0-0.9,0h-0.9h-6.2l0.6-2.7l0.1-0.3l0.1-0.6l0.2-0.9l2.1-10.2
		l0.8-3.9L140.3,70.4C140.3,70.4,140.3,70.4,140.3,70.4z M134.8,45.1c1.4,0.7,2.9,1.4,4.3,2.1h-0.7l-1.1,5.1
		c-1.7-1.6-3.7-2.8-6.1-3.6C132.4,47.5,133.6,46.3,134.8,45.1z M120.8,53.7c1.9,0,3.7,0.1,5.2,0.4c5.3,0.9,8.3,3.2,9.5,7.5
		c0.5,1.7,0.6,3.8,0.5,6.1c-0.1,1.5-0.3,3.1-0.6,4.8c-0.1,0.5-0.2,1-0.3,1.5c-1.3,6.2-2.8,10.8-5.1,14.1c-0.3,0.4-0.6,0.8-0.9,1.1
		c-3,3.6-7.3,5.3-13.9,5.6c-0.9,0.1-1.9,0.1-2.9,0.1H99.5c0,0-2.9,14.2-2.9,14.2H82.7h-0.5l0.1-0.3L84.9,96l1.9-9l4.4-21.2l1.3-6
		l1.2-6h5.2h11.4H120.8z M106.8,170.5c-2.5-7.8-6.1-14.5-10.5-20.3c-4.5,5.4-9,10.9-13.5,16.3c-4.7-6.6-10.3-12.3-16.3-17.5
		c4.6-5.1,9.1-10.2,13.7-15.2c-5.9-4.9-12.3-9.4-18.7-13.8c-4.7,4.8-9.3,9.5-14,14.3c-6.5-4.8-13-9.5-19-14.8
		c4.8-4.4,9.5-8.9,14.3-13.3c-5.9-4.9-11.5-10.2-16.1-16.4c-4.8,4.1-9.6,8.2-14.5,12.3C7.7,95.7,4.1,88.7,1.6,80.5
		c4.8-3.7,9.6-7.4,14.5-11.1c2.5,7.8,6.1,14.5,10.5,20.3c5.1-4.3,10.2-8.7,15.3-13c-4.4-5.5-8-11.7-10.5-19.1
		c5.1-3.9,10.2-7.8,15.3-11.7c2.6,6.9,6.2,12.7,10.5,17.8c5.1-4.3,10.2-8.7,15.3-13C68.3,46,64.6,40.5,62,34.1
		c5.1-3.9,10.3-7.9,15.4-11.8c2.7,6,6.3,11,10.5,15.4c4.8-4.1,9.7-8.2,14.5-12.3c4.5,4.2,9.6,7.8,15.2,10.9
		c-3.9,3.6-7.8,7.3-11.7,10.9h-6.3c-4.2-2.9-8.1-6-11.6-9.6c-5.1,4.3-10.2,8.7-15.3,13c3.8,4.2,8.1,7.8,12.7,11.1l-1.2,5.7
		c-3.7,3.5-7.4,7-11.2,10.4c2.6,1.9,5.2,3.7,7.9,5.4l-4.4,21.3c-0.1,0.1-0.1,0.1-0.2,0.2c0.1,0.1-0.5,3-0.5,3l-1.6,7.9h8H92
		c0.9,0.7,1.8,1.3,2.6,2c0.6-0.7,1.2-1.3,1.8-2c0.1,0,5.5,0,5.5,0l1.1-5.2l0.6-2.7c1.9-2.1,3.8-4.2,5.6-6.3
		c5.5,4,10.7,8.5,15.2,13.6l-0.1,0.6h0.6c0.1,0,1.5,0,1.5,0c-0.4,0.1-0.7,0.3-1.1,0.4c-0.1-0.1-0.2-0.2-0.3-0.4
		c-0.2,0.3-0.5,0.5-0.7,0.8c-4.1,2-6.9,5.3-7.6,9.2c-2,2.4-4,4.8-6,7.3c4.4,5.5,8,11.7,10.5,19.1
		C116.3,158.2,111.6,164.4,106.8,170.5z M278.1,150.5l1.1,1.4l-1.1,1.5c-1.4,1.8-2.9,3.7-4.7,5.6l-1.2,1.3l-1.6-0.9
		c-3.4-1.9-6.5-3.7-9.6-5.7l-0.6-0.4l-0.5,0.5c-0.6,0.6-1.3,1.2-2.1,1.8c-0.7,0.5-1.4,1.1-2.2,1.7l-0.5,0.4l0.3,0.6
		c1.4,3.4,2.7,6.8,4,10.4l0.6,1.7l-1.5,1c-2.1,1.3-4.2,2.6-6.3,3.6l-1.6,0.8l-1.2-1.4c-2.4-2.8-4.8-5.7-7-8.7l-0.4-0.5l-0.6,0.3
		c-1,0.4-1.9,0.7-2.5,1c-0.9,0.3-1.8,0.6-2.6,0.9l-0.6,0.2l0,0.7c0.2,3.7,0.3,7.4,0.2,11.2l0,1.8l-1.8,0.4c-2.4,0.5-4.8,1-7.1,1.3
		l-1.8,0.2l-0.7-1.7c-1.3-3.4-2.5-7-3.6-10.6l-0.2-0.6l-0.7,0c-0.8,0-1.5,0.1-2.3,0.1c-0.2,0-0.3,0-0.5,0c-0.9,0-1.8,0-2.7-0.1
		l-0.7,0l-0.2,0.6c-1.1,3.6-2.3,7.1-3.6,10.6l-0.7,1.7l-1.8-0.2c-2.3-0.3-4.7-0.7-7.1-1.3l-1.8-0.4l0-1.8c-0.1-3.7,0-7.5,0.2-11.2
		l0-0.7l-0.6-0.2c-1-0.3-1.8-0.6-2.6-0.9c-0.8-0.3-1.6-0.6-2.6-1l-0.6-0.3l-0.4,0.5c-2.3,3-4.6,5.9-7,8.7l-1.2,1.4l-1.6-0.9
		c-2.1-1.1-4.2-2.3-6.3-3.6l-1.6-1l0.6-1.7c1.2-3.5,2.5-7,4-10.4l0.3-0.6l-0.5-0.4c-0.8-0.6-1.5-1.2-2.2-1.7
		c-0.7-0.5-1.3-1.1-2.1-1.8l-0.5-0.5l-0.6,0.4c-3.1,2-6.3,3.9-9.6,5.8l-1.6,0.9l-1.2-1.4c-1.7-1.9-3.2-3.7-4.7-5.6l-1.1-1.5l1.2-1.4
		c2.4-2.9,4.8-5.7,7.3-8.4l0.5-0.5l-0.4-0.6c-0.1-0.1-0.2-0.2-0.2-0.4h0.9h1h0.9c0.3,0.4,0.5,0.8,0.8,1.2c-3.1,3.2-6.1,6.6-9,10.2
		c1.4,1.9,2.9,3.7,4.5,5.4c4-2.2,7.8-4.6,11.6-7.1c1.2,1.2,2.5,2.4,3.8,3.5c1.3,1.1,2.7,2.1,4.1,3.1c-1.8,4.1-3.5,8.3-4.9,12.6
		c2,1.3,4,2.4,6.1,3.5c3-3.4,5.8-7,8.5-10.6c1.6,0.7,3.1,1.4,4.8,2c1.6,0.6,3.2,1.1,4.9,1.6c-0.3,4.5-0.4,9-0.3,13.5
		c2.3,0.5,4.6,0.9,7,1.2c1.6-4.2,3.1-8.5,4.3-12.8c1.7,0.1,3.4,0.2,5.1,0.2c1.7,0,3.4-0.1,5.1-0.2c1.3,4.3,2.7,8.6,4.3,12.8
		c2.3-0.3,4.6-0.7,6.9-1.2c0.1-4.6,0-9.1-0.3-13.5c1.7-0.5,3.3-1,4.9-1.6c1.6-0.6,3.2-1.2,4.7-2c2.7,3.6,5.5,7.2,8.4,10.6
		c2.1-1.1,4.1-2.2,6.1-3.5c-1.5-4.3-3.1-8.5-4.9-12.6c1.4-1,2.7-2,4.1-3.1c1.3-1.1,2.6-2.3,3.8-3.5c3.8,2.5,7.6,4.8,11.6,7.1
		c1.6-1.7,3.1-3.5,4.5-5.4c-2.9-3.5-5.8-6.9-9-10.1c0.3-0.4,0.5-0.8,0.8-1.2h0.9h1h0.9c-0.1,0.1-0.1,0.2-0.2,0.4l-0.4,0.6l0.5,0.5
		C273.3,144.7,275.7,147.6,278.1,150.5z M250.8,146.6v3.1h-2.1v-7.5h2.1v2.7h2.8v-2.7h2.1v7.5h-2.1v-3.1H250.8L250.8,146.6z
		 M247.2,142.2v7.5H245l-2.9-4.7c0,0,0,4.7,0,4.7h-2v-7.5h2.2l2.9,4.6c0,0,0-4.6,0-4.6H247.2L247.2,142.2z M232.9,149.7v-1.9h2.1
		v1.7c0,1.5-1.3,2-2.1,2v-0.8c0.6-0.1,0.9-0.4,0.9-1H232.9z M228.5,145.6c-0.7,0-1.1,0.6-1.1,1.2v3h-2v-5.4h1.9v0.7
		c0.4-0.6,1.2-0.9,1.9-0.9c2,0,2.2,1.3,2.2,2.1v3.5h-2v-2.6C229.5,146.3,229.6,145.6,228.5,145.6z M224.5,147c0,1.6-1.3,2.9-3.2,2.9
		c-1.9,0-3.1-1.2-3.1-2.9c0-1.6,1.3-2.9,3.1-2.9C223.2,144.1,224.5,145.4,224.5,147z M217.1,148.4c0.2,0,0.3,0,0.5,0v1.3
		c-0.4,0-0.7,0.1-1.1,0.1c-1.7,0-2.1-0.4-2.1-1.9v-2.4h-1v-1.2h1v-1.6h2v1.6h1.2v1.2h-1.2v2.5C216.4,148.3,216.7,148.4,217.1,148.4z
		 M208.7,144.9c0.4-0.5,1-0.8,1.6-0.8c1.9,0,2.7,1.5,2.7,3c0,1.4-0.8,2.8-2.5,2.8c-0.7,0-1.3-0.3-1.7-0.7c0,0,0,2.4,0,2.4h-2v-7.3
		h1.9C208.6,144.3,208.6,144.9,208.7,144.9z M202.7,145.6c-0.8,0-0.9,0.6-0.9,1.5v2.7h-2v-3.1c0-0.6-0.2-1-0.7-1c-0.7,0-1,0.4-1,1.5
		v2.6h-2v-5.4h1.9v0.7c0.4-0.5,1-0.9,1.7-0.9c0.7,0,1.4,0.2,1.7,0.9c0.5-0.6,1.1-0.9,1.9-0.9c1.9,0,2.1,1.3,2.1,2.3v3.2h-2v-3.2
		C203.5,145.9,203.2,145.6,202.7,145.6z M192,145.3c-0.5,0-0.9,0.2-1,0.7h-1.8c0-0.7,0.4-1.2,0.9-1.5c0.5-0.3,1.2-0.4,1.9-0.4
		c1.4,0,2.8,0.3,2.8,1.8v2.4c0,0.5,0,1,0.2,1.4h-2c-0.1-0.2-0.1-0.3-0.1-0.5c-0.5,0.5-1.3,0.7-2,0.7c-1.1,0-2-0.5-2-1.6
		c0-1.8,2.1-1.6,3.5-1.9c0.3-0.1,0.5-0.2,0.5-0.5C193,145.4,192.4,145.3,192,145.3z M183,146.6v3.1h-2.1v-7.5h2.1v2.7h2.8v-2.7h2.1
		v7.5h-2.1v-3.1H183L183,146.6z M308.2,138.3c-0.4,0.1-0.8,0.2-1.2,0.2c-1.1,0.2-2.2,0.3-3.4,0.3h-14.8h-0.9h-1.9h-5.1h-6.8h-1h-0.9
		h-0.2h-0.8h-1h-0.9H164.8H164h-1h-0.9h-0.2h-0.8h-1h-6.9H148h-1.8h-0.9h-12c-0.2,0-0.4,0-0.5,0c-0.5,0-0.9,0-1.3-0.1
		c-7.5-0.7-13.2-5.5-13.2-11.2c0-4.4,3.3-8.1,8.2-10c0.3-0.1,0.5-0.2,0.8-0.3c1.2-0.4,2.6-0.7,4-0.9c0.7-0.1,1.5-0.1,2.2-0.1h15.6
		h1.3h2.1h0.9h0.7c0.1,0,0.9,0,0.9,0h0.9h0.7h121h0.7h0.9h0.7c0.1,0,0.9,0,0.9,0h0.9h8.1h1.3h12.5c0.8,0,1.5,0,2.2,0.1
		c0.5,0.1,1,0.1,1.5,0.2l-0.1,0.6l-1.5,7.3l-1.6,7.9h0.9h7.1h5.1C315.4,135.2,312.2,137.4,308.2,138.3z M312.1,125.9l1.4-6.9
		l0.2-0.9l0.2-0.9c0,0,0.5-2.3,0.5-2.3l3.5-16.9l1.8-8.9l1.1-5.4l0.3-1.7l2.4-11.8h6.4h6l-0.9,3.7l-0.3,1.2l-0.3,1.3h0.6
		c0.1-0.2,0.2-0.4,0.3-0.7c1-1.9,2.3-3.2,3.8-4.1c0.1-0.1,0.2-0.1,0.3-0.2c2.2-1.2,4.8-1.6,7.7-1.6c9,0,13.3,3.9,11.5,13.8
		c0,0.2-0.1,0.3-0.1,0.5l-1.8,8.9c-0.3,1.3-0.6,2.5-0.9,3.6c-2.7,9.2-7.6,12.9-16.8,12.9c-0.3,0-0.6,0-0.8,0
		c-4.1-0.1-7.5-1.3-8.4-6.3h-0.6l-4.7,22.6h-0.9h-3.2h-0.9h-0.9H312.1z M345.3,117.6c-5.7,4.4-11,9.2-15.5,14.8l1.1-5.2l2.4-11.7
		c2.1,0.5,4.1,0.6,5.6,0.6c1.7,0,3.3-0.1,4.8-0.3C344.2,116.4,344.7,117,345.3,117.6z M427.8,102c-4.8-4.1-9.6-8.2-14.5-12.3
		c-4.7,6.2-10.2,11.5-16.1,16.4c4.8,4.4,9.5,8.9,14.3,13.3c-6,5.2-12.5,10-19,14.8c-4.7-4.8-9.3-9.5-14-14.3
		c-6.4,4.5-12.8,8.9-18.7,13.8c4.6,5.1,9.1,10.2,13.7,15.2c-6,5.2-11.6,10.9-16.3,17.5c-4.5-5.4-9-10.9-13.5-16.3
		c-4.4,5.9-8,12.5-10.5,20.3c-4.8-6.1-9.5-12.3-14.3-18.4c2.5-7.3,6.2-13.6,10.5-19.1c-0.2-0.2-0.3-0.4-0.5-0.6h0.8
		c-0.1,0.2-0.3,0.3-0.4,0.5c4.8,5.8,9.6,11.5,14.3,17.3c4.7-6.2,10.2-11.5,16.1-16.4c-4.8-5.4-9.6-10.7-14.5-16.1
		c1.8-1.4,3.7-2.8,5.5-4.1c1.5-0.8,2.9-1.7,4.2-2.9c2.9-2,5.8-3.9,8.7-5.8c-1-1-1.9-2-2.9-3c0.9-2.2,1.6-4.7,2.2-7.5l1.8-8.9
		c0.5-2.3,0.7-4.5,0.6-6.5c0.5-0.4,1-0.7,1.5-1.1c-0.6-0.5-1.2-1.1-1.7-1.6c-0.4-2.7-1.5-5.1-3.1-7.1c-2.4-2.9-5.9-4.8-10.4-5.5
		c5.7-3.9,11-8.1,15.5-13.1c-5.1-4.3-10.2-8.7-15.3-13c-4.5,4.6-9.7,8.5-15.3,12c5,4.7,10.1,9.4,15.1,14.1c-1.5-0.2-3-0.4-4.7-0.4
		c-1.1,0-3.1,0-5.4,0.4h-5.8h-12.4c-1.5-1.5-2.9-2.9-4.4-4.4c-3.2,1.7-6.3,3.3-9.4,5.1c-3.6-1-7.6-1.1-11.4-1.1c-0.6,0-1.2,0-1.9,0
		c-2.8-3.2-5.7-6.3-8.5-9.5c5.5-3.2,11.4-6,17.2-8.8c4.7,4.8,9.3,9.5,14,14.3c6-3.1,11.9-6.3,17.5-9.8c-4.8-4.4-9.5-8.9-14.3-13.3
		c5.5-3.2,10.7-6.7,15.2-10.9c4.8,4.1,9.7,8.2,14.5,12.3c4.3-4.4,7.9-9.4,10.5-15.4c5.1,3.9,10.3,7.9,15.4,11.8
		c-2.6,6.4-6.2,11.9-10.5,16.6c5.1,4.3,10.2,8.7,15.3,13c4.3-5.1,8-10.9,10.5-17.8c5.1,3.9,10.2,7.8,15.3,11.7
		c-2.5,7.3-6.2,13.6-10.5,19.1c-5.1-4.3-10.2-8.6-15.3-13c-4.6,5.4-10,10-15.7,14.2c5,4.7,10.1,9.4,15.1,14.1
		c5.9-4.6,11.3-9.5,15.9-15.3c5.1,4.3,10.2,8.6,15.3,13c4.4-5.9,8-12.5,10.5-20.3c4.8,3.7,9.6,7.4,14.5,11.1
		C435.9,88.7,432.2,95.7,427.8,102z"/>
</g>
<g id="SPLINE_47_">
	<path fill="none" stroke="#000000" stroke-width="0" stroke-linecap="round" stroke-linejoin="round" stroke-miterlimit="10" d="
		M269.8,55.6l-0.2,1.1l-0.2,1c0.8-0.5,1.6-0.9,2.4-1.4c1.3,1.5,2.6,3,3.8,4.5c0.2,0.3,0.5,0.6,0.7,0.9c-0.1,0.1-0.2,0.3-0.4,0.4
		c-0.5,0.6-0.9,1.1-1.4,1.7h1h1.1h0.9c0.2-0.2,0.4-0.4,0.5-0.6l1.2-1.4l-1.1-1.4l0-0.1c-0.2-0.3-0.5-0.6-0.7-0.9
		c-1.2-1.5-2.5-3.1-3.9-4.7l-1.2-1.4l-1.6,0.9c-0.8,0.4-1.6,0.9-2.4,1.4H269.8L269.8,55.6z"/>
</g>
<g id="SPLINE_48_">
	<path fill="none" stroke="#000000" stroke-width="0" stroke-linecap="round" stroke-linejoin="round" stroke-miterlimit="10" d="
		M163,55.6h1.3h1.5c-0.8-0.4-1.6-0.9-2.3-1.3l-0.7-0.4l-0.2,0.7l-0.1,0.4l-0.1,0.5l0,0.1h0.1H163z"/>
</g>
<g id="SPLINE_49_">
	<path fill="none" stroke="#000000" stroke-width="0" stroke-linecap="round" stroke-linejoin="round" stroke-miterlimit="10" d="
		M270.3,141.6l0.4-0.6c0.1-0.1,0.1-0.2,0.2-0.4H270h-1h-0.9c-0.3,0.4-0.5,0.8-0.8,1.2c3.1,3.3,6.1,6.6,9,10.1
		c-1.4,1.9-2.9,3.7-4.5,5.4c-4-2.2-7.8-4.5-11.6-7.1c-1.2,1.2-2.5,2.4-3.8,3.5c-1.3,1.1-2.7,2.1-4.1,3.1c1.8,4.1,3.5,8.3,4.9,12.6
		c-2,1.3-4,2.5-6.1,3.5c-3-3.4-5.8-6.9-8.4-10.6c-1.5,0.7-3.1,1.4-4.7,2c-1.6,0.6-3.2,1.1-4.9,1.6c0.3,4.5,0.4,9,0.3,13.5
		c-2.3,0.5-4.6,0.9-6.9,1.2c-1.6-4.2-3.1-8.5-4.3-12.8c-1.7,0.1-3.4,0.2-5.1,0.2c-1.7,0-3.4-0.1-5.1-0.2c-1.2,4.3-2.7,8.6-4.3,12.8
		c-2.3-0.3-4.6-0.7-7-1.2c-0.1-4.6,0-9.1,0.3-13.5c-1.6-0.5-3.3-1-4.9-1.6c-1.6-0.6-3.2-1.3-4.8-2c-2.6,3.6-5.5,7.2-8.5,10.6
		c-2.1-1.1-4.1-2.3-6.1-3.5c1.5-4.3,3.1-8.5,4.9-12.6c-1.4-1-2.8-2-4.1-3.1c-1.3-1.1-2.6-2.3-3.8-3.5c-3.7,2.5-7.6,4.9-11.6,7.1
		c-1.6-1.7-3.1-3.5-4.5-5.4c2.9-3.5,5.9-6.9,9-10.2c-0.3-0.4-0.5-0.8-0.8-1.2H165h-1h-0.9c0.1,0.1,0.2,0.2,0.2,0.4l0.4,0.6l-0.5,0.5
		c-2.5,2.7-5,5.5-7.3,8.4l-1.2,1.4l1.1,1.5c1.4,1.9,3,3.7,4.7,5.6l1.2,1.4l1.6-0.9c3.3-1.8,6.5-3.8,9.6-5.8l0.6-0.4l0.5,0.5
		c0.7,0.7,1.4,1.3,2.1,1.8c0.6,0.6,1.3,1.1,2.2,1.7l0.5,0.4l-0.3,0.6c-1.5,3.4-2.8,7-4,10.4l-0.6,1.7l1.6,1c2,1.3,4.1,2.5,6.3,3.6
		l1.6,0.9l1.2-1.4c2.4-2.8,4.8-5.7,7-8.7l0.4-0.5l0.6,0.3c1,0.4,1.8,0.7,2.6,1c0.8,0.3,1.6,0.6,2.6,0.9l0.6,0.2l0,0.7
		c-0.2,3.7-0.3,7.5-0.2,11.2l0,1.8l1.8,0.4c2.4,0.5,4.8,1,7.1,1.3l1.8,0.2l0.7-1.7c1.3-3.4,2.5-7,3.6-10.6l0.2-0.6l0.7,0
		c1,0,1.8,0.1,2.7,0.1c0.2,0,0.4,0,0.5,0c0.7,0,1.5,0,2.3-0.1l0.7,0l0.2,0.6c1.1,3.6,2.3,7.2,3.6,10.6l0.7,1.7l1.8-0.2
		c2.3-0.3,4.7-0.7,7.1-1.3l1.8-0.4l0-1.8c0.1-3.8,0-7.5-0.2-11.2l0-0.7l0.6-0.2c0.9-0.3,1.7-0.6,2.6-0.9l0.1,0
		c0.7-0.2,1.6-0.6,2.5-1l0.6-0.3l0.4,0.5c2.2,3,4.6,5.9,7,8.7l1.2,1.4l1.6-0.8c2.1-1.1,4.3-2.3,6.3-3.6l1.5-1l-0.6-1.7
		c-1.2-3.6-2.6-7-4-10.4l-0.3-0.6l0.5-0.4c0.8-0.6,1.5-1.2,2.1-1.7l0,0c0.7-0.6,1.4-1.2,2.1-1.8l0.5-0.5l0.6,0.4
		c3.1,2,6.2,3.9,9.6,5.7l1.6,0.9l1.2-1.3c1.8-1.9,3.3-3.8,4.7-5.6l1.1-1.5l-1.1-1.4c-2.4-2.9-4.8-5.7-7.3-8.4L270.3,141.6z"/>
</g>
<g id="SPLINE_50_">
	<path fill="none" stroke="#000000" stroke-width="0" stroke-linecap="round" stroke-linejoin="round" stroke-miterlimit="10" d="
		M178.7,55.6h0.8h0.9h0.8c-1.6-3.8-3.1-7.6-4.4-11.4c2-1.3,4-2.5,6.1-3.5c3,3.4,5.8,6.9,8.4,10.6c1.5-0.7,3.1-1.4,4.8-2
		c1.6-0.6,3.2-1.1,4.9-1.6c-0.3-4.5-0.4-9-0.3-13.5c2.3-0.5,4.6-0.9,6.9-1.2c1.6,4.2,3.1,8.5,4.3,12.8c1.7-0.1,3.4-0.2,5.1-0.2
		c1.7,0,3.4,0.1,5.1,0.2c1.2-4.3,2.7-8.6,4.3-12.8c2.3,0.3,4.7,0.7,7,1.2c0.1,4.6,0,9.1-0.3,13.5c1.6,0.5,3.3,1,4.9,1.6
		c1.6,0.6,3.2,1.3,4.8,2c2.6-3.6,5.5-7.2,8.5-10.6c2.1,1.1,4.1,2.3,6.1,3.5c-1.3,3.9-2.8,7.7-4.4,11.4h0.8h0.9h0.8l0.1-0.2
		c1.5-3.5,2.8-7,4-10.4l0.6-1.7l-1.6-1c-2-1.3-4.1-2.5-6.3-3.6l-1.6-0.9l-1.2,1.4c-2.4,2.8-4.8,5.7-7,8.7l-0.4,0.5l-0.6-0.3
		c-1-0.4-1.8-0.7-2.6-1c-0.8-0.3-1.6-0.6-2.6-0.9l-0.6-0.2l0-0.7c0.2-3.7,0.3-7.5,0.2-11.2l0-1.8l-1.8-0.4c-2.5-0.5-4.9-1-7.1-1.3
		l-1.8-0.2l-0.7,1.7c-1.3,3.5-2.5,7-3.6,10.6l-0.2,0.6l-0.7,0c-1,0-1.9-0.1-2.7-0.1c-0.2,0-0.4,0-0.5,0c-0.7,0-1.4,0-2.2,0.1l-0.7,0
		l-0.2-0.6c-1.1-3.6-2.3-7.2-3.6-10.6l-0.7-1.7l-1.8,0.2c-2.3,0.3-4.7,0.7-7.1,1.3l-1.8,0.4l0,1.8c-0.1,3.7,0,7.5,0.2,11.2l0,0.7
		l-0.6,0.2c-0.9,0.3-1.8,0.6-2.6,0.9c-0.7,0.3-1.6,0.6-2.6,1l-0.6,0.3l-0.4-0.5c-2.2-3-4.6-5.9-7-8.7l-1.2-1.4l-1.6,0.8
		c-2.1,1.1-4.2,2.3-6.3,3.6l-1.5,1l0.6,1.7c1.3,3.6,2.6,7.1,4,10.4L178.7,55.6z"/>
</g>
<g id="SPLINE_51_">
	<path fill="none" stroke="#000000" stroke-width="0" stroke-linecap="round" stroke-linejoin="round" stroke-miterlimit="10" d="
		M209.8,148.5c0.9,0,1.2-0.8,1.2-1.6c0-0.7-0.3-1.5-1.2-1.5c-0.5,0-1.2,0.3-1.2,1.5C208.7,147.9,208.9,148.5,209.8,148.5z"/>
</g>
<g id="HATCH_5_">
	<path d="M209.8,148.5c0.9,0,1.2-0.8,1.2-1.6c0-0.7-0.3-1.5-1.2-1.5c-0.5,0-1.2,0.3-1.2,1.5C208.7,147.9,208.9,148.5,209.8,148.5z"
		/>
</g>
<g id="SPLINE_52_">
	<path fill="none" stroke="#000000" stroke-width="0" stroke-linecap="round" stroke-linejoin="round" stroke-miterlimit="10" d="
		M190.9,148.1c0,0.4,0.4,0.6,0.8,0.6c0.9,0,1.2-0.5,1.2-1.6c-0.3,0.2-0.8,0.2-1.2,0.3C191.3,147.6,190.9,147.7,190.9,148.1z"/>
</g>
<g id="HATCH_6_">
	<path d="M190.9,148.1c0,0.4,0.4,0.6,0.8,0.6c0.9,0,1.2-0.5,1.2-1.6c-0.3,0.2-0.8,0.2-1.2,0.3C191.3,147.6,190.9,147.7,190.9,148.1z
		"/>
</g>
<g id="SPLINE_53_">
	<path fill="none" stroke="#000000" stroke-width="0" stroke-linecap="round" stroke-linejoin="round" stroke-miterlimit="10" d="
		M220.2,147c0,0.7,0.3,1.5,1.2,1.5c0.9,0,1.2-0.8,1.2-1.5c0-0.7-0.3-1.5-1.2-1.5C220.4,145.5,220.2,146.3,220.2,147z"/>
</g>
<g id="HATCH_7_">
	<path d="M220.2,147c0,0.7,0.3,1.5,1.2,1.5c0.9,0,1.2-0.8,1.2-1.5c0-0.7-0.3-1.5-1.2-1.5C220.4,145.5,220.2,146.3,220.2,147z"/>
</g>
<g id="POLYLINE_5_">
	
		<polyline fill="none" stroke="#000000" stroke-width="0" stroke-linecap="round" stroke-linejoin="round" stroke-miterlimit="10" points="
		146.4,127.9 146.3,126.9 146.2,126.1 146.2,125.9 146.2,125.1 146.1,124.1 146,123 145.9,123 145.1,124.7 144.3,126.2 143.7,127.4 
		143.5,127.7 143.2,128.3 143.1,128.4 142.7,129.4 142.4,129.8 142.8,129.8 143.6,129.8 143.7,129.8 144.5,129.8 145.4,129.8 
		146.2,129.8 146.5,129.8 146.4,128.7 146.4,127.9 	"/>
</g>
<g id="SPLINE_54_">
	
		<path fill="#D92727" stroke="#000000" stroke-width="0" stroke-linecap="round" stroke-linejoin="round" stroke-miterlimit="10" d="
		M305,132.5H304l1.6-7.9l1.5-7.3l0.1-0.6c-0.5-0.1-1-0.2-1.5-0.2c-0.7-0.1-1.5-0.1-2.2-0.1h-12.5h-1.3h-8.1h-0.9H280h-0.1h-0.7h-0.9
		h-0.7h-121h-0.7h-0.9h-0.7H154h-0.7h-0.9h-2.1h-1.3h-15.6c-0.8,0-1.5,0-2.2,0.1c-1.4,0.2-2.7,0.5-4,0.9c-0.3,0.1-0.5,0.2-0.8,0.3
		c-4.9,1.9-8.2,5.7-8.2,10c0,5.8,5.8,10.5,13.2,11.2c0.4,0,0.9,0.1,1.3,0.1c0.2,0,0.4,0,0.6,0h12h0.9h1.8h5.2h6.9h1h0.8h0.2h0.9h1
		h0.9h104.4h0.9h1h0.8h0.2h0.9h1h6.8h5.1h1.9h0.9h14.8c1.2,0,2.3-0.1,3.4-0.3c0.4-0.1,0.8-0.2,1.2-0.2c4-1,7.2-3.1,9-5.9h-5.1H305z"
		/>
</g>
<g id="POLYLINE_6_">
	
		<polyline fill="none" stroke="#000000" stroke-width="0" stroke-linecap="round" stroke-linejoin="round" stroke-miterlimit="10" points="
		148.4,135.6 148.3,135.6 147.5,135.6 147,135.6 146.8,133.7 146.7,132.9 146.5,132.9 145.5,132.9 144.8,132.9 144.6,132.9 
		143.8,132.9 142.9,132.9 140.8,132.9 139.4,135.6 135.3,135.6 134.8,135.6 135.6,134.1 136.9,131.7 143.3,119.9 146.1,119.9 
		147.4,119.9 149.9,119.9 150.1,121.9 150.2,122.8 150.3,123.6 150.3,123.8 150.4,124.6 150.5,125.5 150.6,126.3 151.4,135.1 
		151.5,135.6 148.4,135.6 	"/>
</g>
<g id="SPLINE_55_">
	<path fill="none" stroke="#000000" stroke-width="0" stroke-linecap="round" stroke-linejoin="round" stroke-miterlimit="10" d="
		M167.9,130.3c-0.7,3.2-2.2,4.6-5.1,5.1c-0.2,0-0.5,0.1-0.8,0.1c-0.3,0-0.6,0.1-0.9,0.1c-0.3,0-0.5,0-0.8,0c-0.1,0-0.3,0-0.4,0
		c0,0-0.1,0-0.1,0c-1.1,0-2,0-2.7-0.1c-0.9-0.1-1.5-0.2-2.1-0.5c-0.4-0.2-0.7-0.3-0.9-0.6c-0.9-0.9-0.8-2.2-0.4-4.2l1.5-6.5l0.2-0.9
		l0.2-1.1l0.2-0.7l0.3-1.2h0.4h0.7h3.3l-2.3,10.4c-0.4,1.8,0.7,1.8,2.5,1.8c1.9,0,2.5-0.1,2.9-2l2.3-10.2h4.4L167.9,130.3z"/>
</g>
<g id="POLYLINE_7_">
	
		<polyline fill="none" stroke="#000000" stroke-width="0" stroke-linecap="round" stroke-linejoin="round" stroke-miterlimit="10" points="
		176.8,135.6 172.4,135.6 175.1,123.5 170.8,123.5 171.7,119.9 184.7,119.9 183.9,123.5 179.5,123.5 176.8,135.6 	"/>
</g>
<g id="SPLINE_56_">
	<path fill="none" stroke="#000000" stroke-width="0" stroke-linecap="round" stroke-linejoin="round" stroke-miterlimit="10" d="
		M199.4,125.5l-1,4.4c-1.1,4.8-4.4,5.8-8.9,5.8c-4.5,0-7.4-0.9-6.3-5.8l1-4.4c1.1-4.8,4.4-5.8,8.9-5.8
		C197.5,119.8,200.5,120.7,199.4,125.5z"/>
</g>
<g id="SPLINE_57_">
	<path fill="none" stroke="#000000" stroke-width="0" stroke-linecap="round" stroke-linejoin="round" stroke-miterlimit="10" d="
		M213.7,133.4l-0.9-1c-1.1,1.1-2.5,1.1-3.9,1.1c-3.2,0-5.3-0.3-4.5-3.7c0.3-1.5,1-3,2.9-3.1c-0.6-0.6-0.7-1-0.5-2
		c0.6-2.7,2.1-3.2,4.8-3.2c2.8,0,4.2,0.4,3.6,3.2l-0.1,0.6h-2.8c0.2-0.7,0.2-1,0.1-1.2c-0.2-0.2-0.5-0.3-1.2-0.3
		c-0.8,0-1.1,0.2-1.3,1c-0.1,0.5,0.1,0.8,0.4,1.2l2.5,2.6l0.3-1.6h2.6l-0.5,2.3c-0.1,0.4-0.3,0.8-0.6,1.1l1.1,1.2L213.7,133.4z"/>
</g>
<g id="POLYLINE_8_">
	
		<polyline fill="none" stroke="#000000" stroke-width="0" stroke-linecap="round" stroke-linejoin="round" stroke-miterlimit="10" points="
		228.3,135.6 223.9,135.6 226.6,123.5 222.3,123.5 223.2,119.9 236.2,119.9 235.4,123.5 231,123.5 228.3,135.6 	"/>
</g>
<g id="SPLINE_58_">
	<path fill="none" stroke="#000000" stroke-width="0" stroke-linecap="round" stroke-linejoin="round" stroke-miterlimit="10" d="
		M250.6,124.6c-0.6,2.6-0.9,4.1-4.2,4.8l0,0.2c1.8,0.1,2.7,1,2.3,2.8l-0.7,3.2h-4.4l0.5-2.2c0.3-1.2,0-2-1.4-2h-3.4l-0.9,4.2H234
		l3.5-15.7h8.5C249.7,119.9,251.4,120.7,250.6,124.6z"/>
</g>
<g id="SPLINE_59_">
	<path fill="none" stroke="#000000" stroke-width="0" stroke-linecap="round" stroke-linejoin="round" stroke-miterlimit="10" d="
		M257.7,135.7c-6.6,0-6.9-1.6-6.1-5.4l2.3-10.5h4.4l-2.3,10.4c-0.4,1.8,0.7,1.8,2.5,1.8c1.9,0,2.5-0.1,2.9-2l2.3-10.2h4.4l-2.3,10.5
		C264.8,134.5,262.5,135.7,257.7,135.7z"/>
</g>
<g id="SPLINE_60_">
	<path fill="none" stroke="#000000" stroke-width="0" stroke-linecap="round" stroke-linejoin="round" stroke-miterlimit="10" d="
		M282.4,130.1c-0.4,1.7-0.8,3.3-2.5,4.5c0,0,0,0,0,0c-0.3,0.2-0.7,0.4-1,0.5c-0.6,0.3-1.3,0.4-1.9,0.5c-0.8,0.1-1.7,0.1-2.5,0.1
		c-0.1,0-0.3,0-0.4,0c-0.1,0-0.3,0-0.4,0c-0.3,0-0.6,0-0.8,0c-0.3,0-0.6,0-1-0.1c-0.3,0-0.5,0-0.8-0.1c-2.6-0.4-4-1.6-3.1-5.8
		l0.9-4.1c1.1-4.8,3.8-5.8,8-5.9c0.2,0,0.5,0,0.8,0c0.1,0,0.2,0,0.4,0c0.2,0,0.3,0,0.5,0c0.3,0,0.5,0,0.7,0c0,0,0.1,0,0.1,0
		c0.3,0,0.5,0,0.7,0c0.3,0,0.6,0.1,0.9,0.1c1.4,0.2,2.3,0.7,2.6,1.8c0.1,0.3,0.1,0.7,0.1,1.1c0,0.2,0,0.5,0,0.8c0,0,0,0.1,0,0.2
		c0,0.2-0.1,0.5-0.1,0.8c0,0.1,0,0.2-0.1,0.3l-0.1,0.6l0,0.1H282h-3.1l0.1-0.6c0.1-0.6-0.1-0.9-0.4-1.2c-0.1-0.1-0.2-0.2-0.4-0.2
		c-0.4-0.1-1-0.1-1.6-0.1c-2.5,0-2.9,0.7-3.4,3l-0.5,2.4c-0.5,2.3-0.6,3.2,2,3.2c1.8,0,2.7-0.1,3.1-2l0.1-0.5h4.5L282.4,130.1z"/>
</g>
<g id="POLYLINE_9_">
	
		<polyline fill="none" stroke="#000000" stroke-width="0" stroke-linecap="round" stroke-linejoin="round" stroke-miterlimit="10" points="
		299.1,135.6 293.7,135.6 291.6,131.6 291,130.5 290.5,129.6 290.4,129.4 290.4,129.4 289.6,129.4 289.1,129.4 288.1,133.8 
		287.7,135.6 287.4,135.6 286.5,135.6 285.7,135.6 285.5,135.6 283.4,135.6 283.4,135.2 285.2,127.3 285.4,126.5 285.6,125.6 
		285.7,124.9 285.8,124.8 285.9,124 286.1,123.1 286.9,119.9 291.3,119.9 290,125.4 289.9,125.8 290.7,125.8 291.3,125.8 
		294.5,122.4 295.2,121.6 296.8,119.9 302.1,119.9 297.5,124.6 296.8,125.4 294.6,127.6 299.1,135.6 	"/>
</g>
<g id="SPLINE_61_">
	<path fill="none" stroke="#000000" stroke-width="0" stroke-linecap="round" stroke-linejoin="round" stroke-miterlimit="10" d="
		M207.4,129.4c-0.4,1.6,0.5,1.6,2,1.6c0.5,0,1.1,0,1.8-0.3l-2.7-2.7C207.7,128.1,207.5,128.9,207.4,129.4z"/>
</g>
<g id="SPLINE_62_">
	<path fill="none" stroke="#000000" stroke-width="0" stroke-linecap="round" stroke-linejoin="round" stroke-miterlimit="10" d="
		M192.3,123.4c-2.3,0-3.1,0.2-3.7,2.6l-0.8,3.5c-0.5,2.3,0.2,2.6,2.5,2.6c2.3,0,3.1-0.2,3.7-2.6l0.8-3.5
		C195.3,123.6,194.6,123.4,192.3,123.4z"/>
</g>
<g id="SPLINE_63_">
	<path fill="none" stroke="#000000" stroke-width="0" stroke-linecap="round" stroke-linejoin="round" stroke-miterlimit="10" d="
		M244.5,123.5H241l-0.9,4.2h3.4c1.9,0,2-0.7,2.4-2.4C246.2,123.9,245.9,123.5,244.5,123.5z"/>
</g>
<g id="POLYLINE_10_">
	
		<polyline fill="none" stroke="#000000" stroke-width="0" stroke-linecap="round" stroke-linejoin="round" stroke-miterlimit="10" points="
		187.9,149.7 187.9,142.2 185.8,142.2 185.8,145 183,145 183,142.2 180.8,142.2 180.8,149.7 183,149.7 183,146.6 185.8,146.6 
		185.8,149.7 187.9,149.7 	"/>
</g>
<g id="SPLINE_64_">
	<path fill="none" stroke="#000000" stroke-width="0" stroke-linecap="round" stroke-linejoin="round" stroke-miterlimit="10" d="
		M192.4,146.3c-1.4,0.3-3.5,0.1-3.5,1.9c0,1.1,0.9,1.6,2,1.6c0.7,0,1.5-0.2,2-0.7c0,0.2,0,0.3,0.1,0.5h2c-0.2-0.4-0.2-0.9-0.2-1.4
		v-2.4c0-1.5-1.4-1.8-2.8-1.8c-0.7,0-1.4,0.1-1.9,0.4c-0.5,0.3-0.9,0.7-0.9,1.5h1.8c0.1-0.5,0.4-0.7,1-0.7c0.4,0,0.9,0.2,0.9,0.6
		C193,146.2,192.8,146.3,192.4,146.3z"/>
</g>
<g id="SPLINE_65_">
	<path fill="none" stroke="#000000" stroke-width="0" stroke-linecap="round" stroke-linejoin="round" stroke-miterlimit="10" d="
		M191.7,148.8c-0.4,0-0.8-0.2-0.8-0.6c0-0.4,0.4-0.6,0.8-0.7c0.4-0.1,0.9-0.1,1.2-0.3C193,148.3,192.7,148.8,191.7,148.8z"/>
</g>
<g id="SPLINE_66_">
	<path fill="none" stroke="#000000" stroke-width="0" stroke-linecap="round" stroke-linejoin="round" stroke-miterlimit="10" d="
		M205.4,149.7v-3.2c0-1-0.2-2.3-2.1-2.3c-0.8,0-1.4,0.3-1.9,0.9c-0.3-0.7-1-0.9-1.7-0.9c-0.7,0-1.4,0.4-1.7,0.9h0v-0.7h-1.9v5.4h2
		v-2.6c0-1.1,0.3-1.5,1-1.5c0.5,0,0.7,0.4,0.7,1v3.1h2V147c0-0.9,0.1-1.5,0.9-1.5c0.5,0,0.8,0.3,0.8,0.9v3.2H205.4z"/>
</g>
<g id="SPLINE_67_">
	<path fill="none" stroke="#000000" stroke-width="0" stroke-linecap="round" stroke-linejoin="round" stroke-miterlimit="10" d="
		M206.8,144.3v7.3h2v-2.4h0c0.4,0.5,1,0.7,1.7,0.7c1.7,0,2.5-1.3,2.5-2.8c0-1.5-0.8-3-2.7-3c-0.7,0-1.3,0.3-1.6,0.8h0v-0.6H206.8z"
		/>
</g>
<g id="SPLINE_68_">
	<path fill="none" stroke="#000000" stroke-width="0" stroke-linecap="round" stroke-linejoin="round" stroke-miterlimit="10" d="
		M209.8,145.5c0.9,0,1.2,0.8,1.2,1.5c0,0.7-0.3,1.6-1.2,1.6c-0.9,0-1.2-0.6-1.2-1.6C208.7,145.8,209.3,145.5,209.8,145.5z"/>
</g>
<g id="SPLINE_69_">
	<path fill="none" stroke="#000000" stroke-width="0" stroke-linecap="round" stroke-linejoin="round" stroke-miterlimit="10" d="
		M217.6,145.4v-1.2h-1.2v-1.6h-2v1.6h-1v1.2h1v2.4c0,1.5,0.4,1.9,2.1,1.9c0.4,0,0.7,0,1.1-0.1v-1.3c-0.2,0-0.3,0-0.5,0
		c-0.4,0-0.7-0.1-0.7-0.5v-2.5H217.6z"/>
</g>
<g id="SPLINE_70_">
	<path fill="none" stroke="#000000" stroke-width="0" stroke-linecap="round" stroke-linejoin="round" stroke-miterlimit="10" d="
		M218.2,147c0,1.6,1.3,2.9,3.1,2.9c1.9,0,3.2-1.2,3.2-2.9c0-1.6-1.3-2.9-3.2-2.9C219.5,144.1,218.2,145.4,218.2,147z"/>
</g>
<g id="SPLINE_71_">
	<path fill="none" stroke="#000000" stroke-width="0" stroke-linecap="round" stroke-linejoin="round" stroke-miterlimit="10" d="
		M222.5,147c0,0.7-0.3,1.5-1.2,1.5c-0.9,0-1.2-0.8-1.2-1.5c0-0.7,0.3-1.5,1.2-1.5C222.3,145.5,222.5,146.3,222.5,147z"/>
</g>
<g id="SPLINE_72_">
	<path fill="none" stroke="#000000" stroke-width="0" stroke-linecap="round" stroke-linejoin="round" stroke-miterlimit="10" d="
		M229.5,149.7h2v-3.5c0-0.8-0.2-2.1-2.2-2.1c-0.7,0-1.5,0.3-1.9,0.9h0v-0.7h-1.9v5.4h2v-3c0-0.6,0.3-1.2,1.1-1.2c1.1,0,1,0.8,1,1.5
		V149.7z"/>
</g>
<g id="SPLINE_73_">
	<path fill="none" stroke="#000000" stroke-width="0" stroke-linecap="round" stroke-linejoin="round" stroke-miterlimit="10" d="
		M232.9,150.7v0.8c0.9-0.1,2.1-0.5,2.1-2v-1.7h-2.1v1.9h0.9C233.7,150.3,233.5,150.5,232.9,150.7z"/>
</g>
<g id="POLYLINE_11_">
	
		<polyline fill="none" stroke="#000000" stroke-width="0" stroke-linecap="round" stroke-linejoin="round" stroke-miterlimit="10" points="
		245.1,146.8 242.3,142.2 240.1,142.2 240.1,149.7 242.1,149.7 242.1,145.1 242.1,145.1 245,149.7 247.2,149.7 247.2,142.2 
		245.2,142.2 245.2,146.8 245.1,146.8 	"/>
</g>
<g id="POLYLINE_12_">
	
		<polyline fill="none" stroke="#000000" stroke-width="0" stroke-linecap="round" stroke-linejoin="round" stroke-miterlimit="10" points="
		255.7,149.7 255.7,142.2 253.6,142.2 253.6,145 250.8,145 250.8,142.2 248.6,142.2 248.6,149.7 250.8,149.7 250.8,146.6 
		253.6,146.6 253.6,149.7 255.7,149.7 	"/>
</g>
<g id="POLYLINE_13_">
	
		<polyline fill="none" stroke="#000000" stroke-width="0" stroke-linecap="round" stroke-linejoin="round" stroke-miterlimit="10" points="
		150.6,126.3 150.5,125.5 150.4,124.6 150.3,123.8 150.3,123.6 150.2,122.8 150.1,121.9 149.9,119.9 147.4,119.9 146.1,119.9 
		143.3,119.9 136.9,131.7 135.6,134.1 134.8,135.6 135.3,135.6 139.4,135.6 140.8,132.9 142.9,132.9 143.8,132.9 144.6,132.9 
		144.8,132.9 145.5,132.9 146.5,132.9 146.7,132.9 146.8,133.7 147,135.6 147.5,135.6 148.3,135.6 148.4,135.6 151.5,135.6 
		151.4,135.1 150.6,126.3 	"/>
</g>
<g id="POLYLINE_14_">
	
		<polyline fill="none" stroke="#000000" stroke-width="0" stroke-linecap="round" stroke-linejoin="round" stroke-miterlimit="10" points="
		146.2,129.8 145.4,129.8 144.5,129.8 143.7,129.8 143.6,129.8 142.8,129.8 142.4,129.8 142.7,129.4 143.1,128.4 143.2,128.3 
		143.5,127.7 143.7,127.4 144.3,126.2 145.1,124.7 145.9,123 146,123 146.1,124.1 146.2,125.1 146.2,125.9 146.2,126.1 146.3,126.9 
		146.4,127.9 146.4,128.7 146.5,129.8 146.2,129.8 	"/>
</g>
<g id="HATCH_8_">
	<path d="M150.6,126.3l-0.1-0.8l-0.1-0.9l-0.1-0.8c0-0.2-0.1-0.9-0.1-0.9l-0.1-0.9l-0.2-2h-2.5h-1.4h-2.8l-6.4,11.9l-1.3,2.3
		l-0.8,1.5h0.5c0,0,4.1,0,4.1,0l1.4-2.7h2.1h0.9h0.8c0.2,0,0.9,0,0.9,0h0.9h0.2l0.1,0.9l0.2,1.8h0.6h0.8c0.1,0,3.1,0,3.1,0l0-0.5
		L150.6,126.3L150.6,126.3z M146.2,129.8h-0.8h-0.9h-0.8c-0.1,0-0.9,0-0.9,0h-0.4l0.2-0.5l0.5-0.9l0.1-0.2l0.3-0.6l0.1-0.2l0.6-1.2
		l0.8-1.5l0.9-1.7c0,0,0.1,1.1,0.1,1.1l0.1,1l0.1,0.8l0,0.2l0.1,0.8l0.1,1l0.1,0.8l0.1,1.2H146.2L146.2,129.8z"/>
</g>
<g id="SPLINE_74_">
	<path fill="none" stroke="#000000" stroke-width="0" stroke-linecap="round" stroke-linejoin="round" stroke-miterlimit="10" d="
		M163.6,130.1c-0.4,1.8-1.1,2-2.9,2c-1.8,0-2.9,0-2.5-1.8l2.3-10.4h-3.3h-0.7h-0.4l-0.3,1.2l-0.2,0.7l-0.2,1.1l-0.2,0.9l-1.5,6.5
		c-0.4,2-0.6,3.3,0.4,4.2c0.2,0.2,0.5,0.4,0.9,0.6c0.5,0.2,1.2,0.4,2.1,0.5c0.8,0.1,1.7,0.1,2.7,0.1c0,0,0.1,0,0.1,0
		c0.1,0,0.3,0,0.4,0c0.3,0,0.5,0,0.8,0c0.3,0,0.6,0,0.9-0.1c0.3,0,0.5-0.1,0.8-0.1c2.8-0.5,4.4-1.9,5.1-5.1l2.3-10.5h-4.4
		L163.6,130.1z"/>
</g>
<g id="HATCH_9_">
	<path d="M163.6,130.1c-0.4,1.8-1.1,2-2.9,2c-1.8,0-2.9,0-2.5-1.8l2.3-10.4h-3.3h-0.7h-0.4l-0.3,1.2l-0.2,0.7l-0.2,1.1l-0.2,0.9
		l-1.5,6.5c-0.4,2-0.6,3.3,0.4,4.2c0.2,0.2,0.5,0.4,0.9,0.6c0.5,0.2,1.2,0.4,2.1,0.5c0.8,0.1,1.7,0.1,2.7,0.1c0.2,0,0.4,0,0.5,0
		c0.3,0,0.5,0,0.8,0c0.3,0,0.6,0,0.9-0.1c0.3,0,0.5-0.1,0.8-0.1c2.8-0.5,4.4-1.9,5.1-5.1l2.3-10.5h-4.4L163.6,130.1z"/>
</g>
<g id="POLYLINE_15_">
	
		<polyline fill="none" stroke="#000000" stroke-width="0" stroke-linecap="round" stroke-linejoin="round" stroke-miterlimit="10" points="
		184.7,119.9 171.7,119.9 170.8,123.5 175.1,123.5 172.4,135.6 176.8,135.6 179.5,123.5 183.9,123.5 184.7,119.9 	"/>
</g>
<g id="HATCH_10_">
	<polygon points="184.7,119.9 171.7,119.9 170.8,123.5 175.1,123.5 172.4,135.6 176.8,135.6 179.5,123.5 183.9,123.5 184.7,119.9 	
		"/>
</g>
<g id="SPLINE_75_">
	<path fill="none" stroke="#000000" stroke-width="0" stroke-linecap="round" stroke-linejoin="round" stroke-miterlimit="10" d="
		M193.1,119.8c-4.5,0-7.8,0.9-8.9,5.8l-1,4.4c-1.1,4.8,1.9,5.8,6.3,5.8c4.5,0,7.8-0.9,8.9-5.8l1-4.4
		C200.5,120.7,197.5,119.8,193.1,119.8z"/>
</g>
<g id="SPLINE_76_">
	<path fill="none" stroke="#000000" stroke-width="0" stroke-linecap="round" stroke-linejoin="round" stroke-miterlimit="10" d="
		M194.8,125.9l-0.8,3.5c-0.5,2.3-1.4,2.6-3.7,2.6c-2.3,0-3-0.2-2.5-2.6l0.8-3.5c0.6-2.3,1.4-2.6,3.7-2.6
		C194.6,123.4,195.3,123.6,194.8,125.9z"/>
</g>
<g id="HATCH_11_">
	<path d="M193.1,119.8c-4.5,0-7.8,0.9-8.9,5.8l-1,4.4c-1.1,4.8,1.9,5.8,6.3,5.8c4.5,0,7.8-0.9,8.9-5.8l1-4.4
		C200.5,120.7,197.5,119.8,193.1,119.8z M194.8,125.9l-0.8,3.5c-0.5,2.3-1.4,2.6-3.7,2.6c-2.3,0-3-0.2-2.5-2.6l0.8-3.5
		c0.6-2.3,1.4-2.6,3.7-2.6C194.6,123.4,195.3,123.6,194.8,125.9z"/>
</g>
<g id="SPLINE_77_">
	<path fill="none" stroke="#000000" stroke-width="0" stroke-linecap="round" stroke-linejoin="round" stroke-miterlimit="10" d="
		M215,129.4l0.5-2.3h-2.6l-0.3,1.6l-2.5-2.6c-0.3-0.4-0.5-0.6-0.4-1.2c0.2-0.8,0.5-1,1.3-1c0.7,0,1,0,1.2,0.3
		c0.2,0.2,0.1,0.6-0.1,1.2h2.8l0.1-0.6c0.7-2.8-0.8-3.2-3.6-3.2c-2.7,0-4.2,0.5-4.8,3.2c-0.2,1-0.1,1.3,0.5,2
		c-1.9,0-2.5,1.6-2.9,3.1c-0.8,3.4,1.4,3.7,4.5,3.7c1.4,0,2.8,0,3.9-1.1l0.9,1l1.8-1.7l-1.1-1.2C214.7,130.2,214.9,129.8,215,129.4z
		"/>
</g>
<g id="SPLINE_78_">
	<path fill="none" stroke="#000000" stroke-width="0" stroke-linecap="round" stroke-linejoin="round" stroke-miterlimit="10" d="
		M209.4,131c-1.5,0-2.3,0-2-1.6c0.1-0.6,0.3-1.3,1.1-1.4l2.7,2.7C210.5,131,209.9,131,209.4,131z"/>
</g>
<g id="HATCH_12_">
	<path d="M215,129.4l0.5-2.3h-2.6l-0.3,1.6l-2.5-2.6c-0.3-0.4-0.5-0.6-0.4-1.2c0.2-0.8,0.5-1,1.3-1c0.7,0,1,0,1.2,0.3
		c0.2,0.2,0.1,0.6-0.1,1.2h2.8l0.1-0.6c0.7-2.8-0.8-3.2-3.6-3.2c-2.7,0-4.2,0.5-4.8,3.2c-0.2,1-0.1,1.3,0.5,2
		c-1.9,0-2.5,1.6-2.9,3.1c-0.8,3.4,1.4,3.7,4.5,3.7c1.4,0,2.8,0,3.9-1.1l0.9,1l1.8-1.7l-1.1-1.2C214.7,130.2,214.9,129.8,215,129.4z
		 M209.4,131c-1.5,0-2.3,0-2-1.6c0.1-0.6,0.3-1.3,1.1-1.4l2.7,2.7C210.5,131,209.9,131,209.4,131z"/>
</g>
<g id="POLYLINE_16_">
	
		<polyline fill="none" stroke="#000000" stroke-width="0" stroke-linecap="round" stroke-linejoin="round" stroke-miterlimit="10" points="
		236.2,119.9 223.2,119.9 222.3,123.5 226.6,123.5 223.9,135.6 228.3,135.6 231,123.5 235.4,123.5 236.2,119.9 	"/>
</g>
<g id="HATCH_13_">
	<polygon points="236.2,119.9 223.2,119.9 222.3,123.5 226.6,123.5 223.9,135.6 228.3,135.6 231,123.5 235.4,123.5 236.2,119.9 	"/>
</g>
<g id="SPLINE_79_">
	<path fill="none" stroke="#000000" stroke-width="0" stroke-linecap="round" stroke-linejoin="round" stroke-miterlimit="10" d="
		M245.9,119.9h-8.5l-3.5,15.7h4.4l0.9-4.2h3.4c1.3,0,1.7,0.8,1.4,2l-0.5,2.2h4.4l0.7-3.2c0.4-1.8-0.6-2.7-2.3-2.8l0-0.2
		c3.3-0.7,3.6-2.2,4.2-4.8C251.4,120.7,249.7,119.9,245.9,119.9z"/>
</g>
<g id="SPLINE_80_">
	<path fill="none" stroke="#000000" stroke-width="0" stroke-linecap="round" stroke-linejoin="round" stroke-miterlimit="10" d="
		M245.9,125.3c-0.4,1.8-0.5,2.4-2.4,2.4h-3.4l0.9-4.2h3.4C245.9,123.5,246.2,123.9,245.9,125.3z"/>
</g>
<g id="HATCH_14_">
	<path d="M245.9,119.9h-8.5l-3.5,15.7h4.4l0.9-4.2h3.4c1.3,0,1.7,0.8,1.4,2l-0.5,2.2h4.4l0.7-3.2c0.4-1.8-0.6-2.7-2.3-2.8l0-0.2
		c3.3-0.7,3.6-2.2,4.2-4.8C251.4,120.7,249.7,119.9,245.9,119.9z M245.9,125.3c-0.4,1.8-0.5,2.4-2.4,2.4h-3.4l0.9-4.2h3.4
		C245.9,123.5,246.2,123.9,245.9,125.3z"/>
</g>
<g id="SPLINE_81_">
	<path fill="none" stroke="#000000" stroke-width="0" stroke-linecap="round" stroke-linejoin="round" stroke-miterlimit="10" d="
		M263.7,119.9l-2.3,10.2c-0.4,1.8-1.1,2-2.9,2c-1.8,0-2.9,0-2.5-1.8l2.3-10.4h-4.4l-2.3,10.5c-0.8,3.8-0.5,5.4,6.1,5.4
		c4.8,0,7.2-1.2,8.1-5.4l2.3-10.5H263.7z"/>
</g>
<g id="HATCH_15_">
	<path d="M263.7,119.9l-2.3,10.2c-0.4,1.8-1.1,2-2.9,2c-1.8,0-2.9,0-2.5-1.8l2.3-10.4h-4.4l-2.3,10.5c-0.8,3.8-0.5,5.4,6.1,5.4
		c4.8,0,7.2-1.2,8.1-5.4l2.3-10.5H263.7z"/>
</g>
<g id="SPLINE_82_">
	<path fill="none" stroke="#000000" stroke-width="0" stroke-linecap="round" stroke-linejoin="round" stroke-miterlimit="10" d="
		M277.9,130.1c-0.4,1.8-1.3,2-3.1,2c-2.6,0-2.5-0.9-2-3.2l0.5-2.4c0.5-2.2,0.9-3,3.4-3c0.6,0,1.2,0,1.6,0.1c0.2,0,0.3,0.1,0.4,0.2
		c0.3,0.2,0.4,0.6,0.4,1.2l-0.1,0.6h3.1h1.4l0-0.1l0.1-0.6c0-0.1,0-0.2,0.1-0.3c0-0.3,0.1-0.5,0.1-0.8c0-0.1,0-0.1,0-0.2
		c0-0.3,0-0.6,0-0.8c0-0.4-0.1-0.8-0.1-1.1c-0.3-1.1-1.2-1.6-2.6-1.8c-0.3,0-0.6-0.1-0.9-0.1c-0.2,0-0.5,0-0.7,0c0,0-0.1,0-0.1,0
		c-0.2,0-0.5,0-0.7,0c-0.2,0-0.3,0-0.5,0c-0.1,0-0.3,0-0.4,0c-0.3,0-0.5,0-0.8,0c-4.2,0.1-6.9,1.2-8,5.9l-0.9,4.1
		c-0.9,4.2,0.5,5.4,3.1,5.8c0.2,0,0.5,0.1,0.8,0.1c0.3,0,0.6,0,1,0.1c0.3,0,0.5,0,0.8,0c0.1,0,0.3,0,0.4,0c0.1,0,0.3,0,0.4,0
		c0.9,0,1.7,0,2.5-0.1c0.6-0.1,1.3-0.2,1.9-0.5c0.3-0.1,0.7-0.3,1-0.5c0,0,0,0,0,0c1.8-1.2,2.1-2.7,2.5-4.5l0.1-0.5H278L277.9,130.1
		z"/>
</g>
<g id="HATCH_16_">
	<path d="M277.9,130.1c-0.4,1.8-1.3,2-3.1,2c-2.6,0-2.5-0.9-2-3.2l0.5-2.4c0.5-2.2,0.9-3,3.4-3c0.6,0,1.2,0,1.6,0.1
		c0.2,0,0.3,0.1,0.4,0.2c0.3,0.2,0.4,0.6,0.4,1.2l-0.1,0.6h3.1h1.4c0-0.1,0.1-0.6,0.1-0.6c0-0.1,0-0.2,0.1-0.3
		c0-0.3,0.1-0.5,0.1-0.8c0-0.4,0.1-0.7,0.1-1c0-0.4-0.1-0.8-0.1-1.1c-0.3-1.1-1.2-1.6-2.6-1.8c-0.3,0-0.6-0.1-0.9-0.1
		c-0.2,0-0.5,0-0.7,0c-0.4,0-0.6,0-0.9,0c-0.2,0-0.3,0-0.5,0c-0.1,0-0.3,0-0.4,0c-0.3,0-0.5,0-0.8,0c-4.2,0.1-6.9,1.2-8,5.9
		l-0.9,4.1c-0.9,4.2,0.5,5.4,3.1,5.8c0.2,0,0.5,0.1,0.8,0.1c0.3,0,0.6,0,1,0.1c0.3,0,0.5,0,0.8,0c0.1,0,0.3,0,0.4,0
		c0.1,0,0.3,0,0.4,0c0.9,0,1.7,0,2.5-0.1c0.6-0.1,1.3-0.2,1.9-0.5c0.3-0.1,0.7-0.3,1-0.5c1.8-1.2,2.2-2.8,2.5-4.5l0.1-0.5H278
		L277.9,130.1z"/>
</g>
<g id="POLYLINE_17_">
	
		<polyline fill="none" stroke="#000000" stroke-width="0" stroke-linecap="round" stroke-linejoin="round" stroke-miterlimit="10" points="
		297.5,124.6 302.1,119.9 296.8,119.9 295.2,121.6 294.5,122.4 291.3,125.8 290.7,125.8 289.9,125.8 290,125.4 291.3,119.9 
		286.9,119.9 286.1,123.1 285.9,124 285.8,124.8 285.7,124.9 285.6,125.6 285.4,126.5 285.2,127.3 283.4,135.2 283.4,135.6 
		285.5,135.6 285.7,135.6 286.5,135.6 287.4,135.6 287.7,135.6 288.1,133.8 289.1,129.4 289.6,129.4 290.4,129.4 290.4,129.4 
		290.5,129.6 291,130.5 291.6,131.6 293.7,135.6 299.1,135.6 294.6,127.6 296.8,125.4 297.5,124.6 	"/>
</g>
<g id="HATCH_17_">
	<path d="M297.5,124.6l4.6-4.7h-5.3l-1.6,1.7l-0.7,0.8l-3.2,3.4h-0.6h-0.8l0.1-0.4l1.2-5.5h-4.4l-0.7,3.2l-0.2,0.9l-0.2,0.7
		c0,0.1-0.2,0.9-0.2,0.9l-0.2,0.9l-0.2,0.7l-1.8,7.9l-0.1,0.4h2.2h0.2h0.8h0.9h0.3l0.4-1.8l1-4.4h0.5h0.8c0.1,0.1,0.6,1.1,0.6,1.1
		l0.6,1.1l2.1,4h5.4l-4.5-8l2.2-2.2L297.5,124.6L297.5,124.6z"/>
</g>
<g id="SPLINE_83_">
	<path fill="none" stroke="#000000" stroke-width="0" stroke-linecap="round" stroke-linejoin="round" stroke-miterlimit="10" d="
		M105.4,66.6l-1.4,6.9l-0.8,3.9l-1,4.7h9.9c2.5-0.1,4-0.3,5.1-1c1.5-1,2.1-3,3-7c1.2-5.7,0.7-7.5-4.9-7.5h-0.5h-1h-4.4H105.4z"/>
</g>
<g id="HATCH_18_">
	<path d="M105.4,66.6l-1.4,6.9l-0.8,3.9l-1,4.7h9.9c2.5-0.1,4-0.3,5.1-1c1.5-1,2.1-3,3-7c1.2-5.7,0.7-7.5-4.9-7.5h-0.5h-1h-4.4
		H105.4z"/>
</g>
<g id="SPLINE_84_">
	<path fill="none" stroke="#000000" stroke-width="0" stroke-linecap="round" stroke-linejoin="round" stroke-miterlimit="10" d="
		M292.4,99.8c0.8,0,1.4,0,2-0.1c2.4-0.3,3.6-1.2,4.6-3.3c0.7-1.5,1.2-3.6,1.8-6.6c1.7-8.4,1.5-10.1-4.2-10.1c-2.5,0-4.2,0.3-5.4,1.3
		c-0.2,0.2-0.5,0.4-0.7,0.7c-0.2,0.2-0.4,0.5-0.5,0.8c0,0.1-0.1,0.1-0.1,0.2c-0.2,0.3-0.3,0.6-0.5,1c-0.1,0.3-0.2,0.6-0.3,0.9
		c0,0.1-0.1,0.3-0.1,0.4c0,0.1,0,0.1-0.1,0.2c-0.1,0.4-0.2,0.8-0.3,1.2c-0.1,0.3-0.2,0.6-0.2,1c0,0.1,0,0.1,0,0.2
		c-0.1,0.3-0.1,0.6-0.2,1c-0.1,0.4-0.2,0.8-0.2,1.2c0,0.1,0,0.1,0,0.2c-1,4.7-1.3,7.3-0.3,8.7C288.2,99.5,289.7,99.8,292.4,99.8z"/>
</g>
<g id="HATCH_19_">
	<path d="M292.4,99.8c0.8,0,1.4,0,2-0.1c2.4-0.3,3.6-1.2,4.6-3.3c0.7-1.5,1.2-3.6,1.8-6.6c1.7-8.4,1.5-10.1-4.2-10.1
		c-2.5,0-4.2,0.3-5.4,1.3c-0.2,0.2-0.5,0.4-0.7,0.7c-0.2,0.2-0.4,0.5-0.5,0.8c0,0.1-0.1,0.1-0.1,0.2c-0.2,0.3-0.3,0.6-0.5,1
		c-0.1,0.3-0.2,0.6-0.3,0.9c0,0.1-0.1,0.3-0.1,0.4c0,0.1,0,0.1-0.1,0.2c-0.1,0.4-0.2,0.8-0.3,1.2c-0.1,0.3-0.2,0.6-0.2,1
		c0,0.1,0,0.1,0,0.2c-0.1,0.3-0.1,0.6-0.2,1c-0.1,0.4-0.2,0.8-0.2,1.2c-1,4.9-1.3,7.5-0.3,8.8C288.2,99.5,289.7,99.8,292.4,99.8z"/>
</g>
<g id="SPLINE_85_">
	<path fill="none" stroke="#000000" stroke-width="0" stroke-linecap="round" stroke-linejoin="round" stroke-miterlimit="10" d="
		M333.6,99.5c0.6,0.2,1.4,0.3,2.4,0.3c4.5,0,6.6-1,8.3-7.2c0.2-0.8,0.4-1.8,0.7-2.8c0.3-1.3,0.5-2.4,0.7-3.4c0.8-4.9,0-6.7-5.4-6.7
		c-0.4,0-0.8,0-1.1,0c-4.3,0.3-5.6,2.5-7.2,10.1C330.8,95.2,330.4,98.6,333.6,99.5z"/>
</g>
<g id="HATCH_20_">
	<path d="M333.6,99.5c0.6,0.2,1.4,0.3,2.4,0.3c4.5,0,6.6-1,8.3-7.2c0.2-0.8,0.4-1.8,0.7-2.8c0.3-1.3,0.5-2.4,0.7-3.4
		c0.8-4.9,0-6.7-5.4-6.7c-0.4,0-0.8,0-1.1,0c-4.3,0.3-5.6,2.5-7.2,10.1C330.8,95.2,330.4,98.6,333.6,99.5z"/>
</g>
<g id="SPLINE_86_">
	
		<path fill="#D92727" stroke="#000000" stroke-width="0" stroke-linecap="round" stroke-linejoin="round" stroke-miterlimit="10" d="
		M98.9,53.7h-5.2l-1.2,6l-1.3,6l-4.4,21.2l-1.9,9l-2.7,12.8l-0.1,0.3h0.5h13.9L99.5,95l0,0h12.7c1,0,2,0,2.9-0.1
		c6.6-0.4,10.9-2.1,13.9-5.6c0.3-0.4,0.6-0.7,0.9-1.1c2.3-3.3,3.8-7.8,5.1-14.1c0.1-0.5,0.2-1,0.3-1.5c0.3-1.7,0.5-3.3,0.6-4.8
		c0.1-2.4,0-4.4-0.5-6.1c-1.1-4.2-4.2-6.6-9.5-7.5c-1.5-0.3-3.3-0.4-5.2-0.4h-10.5H98.9z"/>
</g>
<g id="SPLINE_87_">
	
		<path fill="#020202" stroke="#000000" stroke-width="0" stroke-linecap="round" stroke-linejoin="round" stroke-miterlimit="10" d="
		M114.7,66.6h0.5c5.6,0,6.1,1.8,4.9,7.5c-0.8,4.1-1.5,6.1-3,7c-1.1,0.7-2.7,0.9-5.1,1h-9.9l1-4.7l0.8-3.9l1.4-6.9h3.9h4.4H114.7z"/>
</g>
<g id="POLYLINE_18_">
	
		<polyline fill="#D92727" stroke="#000000" stroke-width="0" stroke-linecap="round" stroke-linejoin="round" stroke-miterlimit="10" points="
		143.4,63.5 153.9,63.5 154.1,63.5 154.3,62.5 154.7,60.5 155.1,58.5 155.6,56.1 155.9,54.9 156.1,53.7 154,53.7 154,53.7 
		152.2,53.7 151.7,53.7 143.7,53.7 142.1,61.6 141.7,63.5 142.4,63.5 143.4,63.5 	"/>
</g>
<g id="POLYLINE_19_">
	
		<polyline fill="#D92727" stroke="#000000" stroke-width="0" stroke-linecap="round" stroke-linejoin="round" stroke-miterlimit="10" points="
		135.3,94.5 133.2,104.7 133,105.6 132.9,106.2 132.8,106.5 132.3,109.1 138.5,109.1 139.4,109.1 140.1,109.1 140.2,109.1 
		141,109.1 141.9,109.1 142.6,109.1 144.6,109.1 145,107.3 145.2,106.5 145.2,106.2 145.4,105.6 145.5,104.7 146,102.7 146.1,102 
		146.3,101 146.5,100.3 146.5,100.1 146.6,99.6 146.7,99.4 146.8,98.4 148.4,90.9 148.6,90 148.8,89.2 148.8,89.1 148.9,88.3 
		149.1,87.4 149.3,86.7 149.3,86.3 149.4,86.2 150.9,78.6 151,78.5 151.1,77.8 151.3,77 151.4,76.2 151.5,76.1 151.6,75.4 
		151.8,74.5 152.7,70.4 150,70.4 142.2,70.4 140.3,70.4 140.3,70.5 136.1,90.7 135.3,94.5 	"/>
</g>
<g id="SPLINE_88_">
	
		<path fill="#D92727" stroke="#000000" stroke-width="0" stroke-linecap="round" stroke-linejoin="round" stroke-miterlimit="10" d="
		M155.5,76.1l-0.1,0.7l0,0.1l-0.1,0.7l-0.2,0.9l-0.1,0.7l-0.1,0.4h0.1h1.9h0.6h2l-0.1,0.5l-1.2,6l-1,4.6l-0.2,0.7l-0.3,1.3l-0.7,3.3
		l-0.6,2.7c-0.1,0.3-0.1,0.5-0.1,0.8c-0.1,0.4-0.1,0.7-0.2,1.1c0,0.3,0,0.5-0.1,0.8c-0.1,1.3,0.1,2.4,0.3,3.3
		c0.1,0.3,0.2,0.6,0.3,0.9c0.2,0.3,0.3,0.6,0.5,0.9c0,0,0.1,0.1,0.1,0.1c0.2,0.2,0.4,0.5,0.6,0.7c0,0,0.1,0.1,0.1,0.1
		c1.3,1.1,3.2,1.7,5.5,2c1.6,0.2,3.3,0.3,5.1,0.3c1.8,0,3.3-0.1,4.8-0.3c3-0.4,5.4-1.2,7.2-2.9c0.3-0.3,0.6-0.6,0.9-0.9
		c0.2-0.3,0.5-0.6,0.7-0.9c0.3-0.5,0.6-1,0.9-1.5c0.9-1.7,1.6-3.9,2.1-6.6l0.7-3.5h-3H175l-0.5,2.1c-0.7,2.7-1,5-4.3,5
		c-2.3,0-2.5-1-2.1-3.3l1.1-5.4l0.5-2.2l2-9.7h5.5h1.2h7.6l0.1-0.7l1.8-8.6h-1.3h-12.9h-0.1l0-0.1l1.7-8.1h-0.2H174h-0.7H172h-6
		c0,0-1.9,0-1.9,0H163l-1,4.6l-0.2,0.9l-0.2,1.1l-0.2,0.9l0,0.2l-0.1,0.6h-0.4h-1.2h-0.4h-2.6l-1,4.9L155.5,76.1z"/>
</g>
<g id="SPLINE_89_">
	<path fill="none" stroke="#000000" stroke-width="0" stroke-linecap="round" stroke-linejoin="round" stroke-miterlimit="10" d="
		M236.2,71.1h1.6l0.5-2.3c0.4-1.9,0.6-3.5,0.6-5c0.1-10.4-8.9-10.5-19.2-10.5c-11.9,0-20.1,0.7-24.4,10.5c-0.8,1.8-1.4,3.9-1.9,6.4
		c-0.8,3.9-0.9,6.8-0.5,9c1.3,6.9,8.2,7,18.1,7.8l3.1,0.2c6.7,0.4,7.5,0.4,6.5,5.2c-1,4.7-3.3,5.1-10,5.1c-7,0-8.9-0.6-7.7-6.4H192
		h-3.1c-1.2,5.8-1.1,9.8,0.1,12.5c0.2,0.4,0.3,0.7,0.6,1.1c0.2,0.3,0.4,0.6,0.6,0.9c0.3,0.3,0.5,0.6,0.8,0.9c3.4,3,9.5,3.1,17,3.1
		c8.6,0,14.2-1.2,18.1-3.1c0.5-0.3,1.1-0.6,1.5-0.9c0.4-0.3,0.8-0.6,1.2-0.9c4.4-3.5,5.3-8.4,6.3-13.3c0.4-2,0.7-3.7,0.8-5.2
		c0.2-2.8-0.3-4.8-1.5-6.3c-2.3-2.9-7.2-3.8-15.9-4.4l-5.9-0.4c-3.8-0.3-5.8-0.4-4.9-4.9c0.6-3.1,1.6-4.7,9.4-4.7
		c5.8,0,8.1,0,6.9,5.7H236.2z"/>
</g>
<g id="SPLINE_90_">
	<path fill="none" stroke="#000000" stroke-width="0" stroke-linecap="round" stroke-linejoin="round" stroke-miterlimit="10" d="
		M247.7,70.4h-3h-1.6l-1.5,7.3l-0.3,1.2l-0.2,0.8h0.5h4.1l-4,19.1c-0.5,2.5-0.5,4.4,0,5.9c0.1,0.3,0.2,0.6,0.3,0.9
		c0.2,0.3,0.3,0.6,0.5,0.9c2.1,2.7,6.4,3.1,11.3,3.1c5.5,0,9.3-0.7,12-3.1c0.3-0.3,0.6-0.6,0.9-0.9c0.2-0.3,0.5-0.6,0.7-0.9
		c0.2-0.3,0.4-0.6,0.5-0.9c1.1-1.8,1.9-4.2,2.5-7.2l0.7-3.5h-3.2h-6.7l-0.5,2.1c-0.7,2.7-1,5-4.3,5c-2.3,0-2.5-1-2.1-3.3l3.6-17.4
		h3.4h1.2h8.5h0.6h0.5l0.1-0.4l0.3-1.4l0.2-1.1l0-0.2l0.2-1.1l0.2-0.9l0.1-0.4l0.8-3.8h-0.1h-1.2h-1h-0.2h-1h-1.2h-1h-1h-1.6H260
		l1.7-8l0-0.2h-1H260h-1.1h-9.5L247.7,70.4z"/>
</g>
<g id="SPLINE_91_">
	<path fill="none" stroke="#000000" stroke-width="0" stroke-linecap="round" stroke-linejoin="round" stroke-miterlimit="10" d="
		M278.4,79.4c-0.8,1.9-1.5,4.1-2.2,6.8c0,0.1-0.1,0.3-0.1,0.4c-0.2,1-0.5,2-0.7,3.1c-0.4,1.8-0.7,3.5-0.9,5c-0.1,0.5-0.1,1-0.2,1.4
		c-0.4,3.5-0.2,6.1,0.8,8.1c0.1,0.1,0.1,0.2,0.2,0.3c0.2,0.3,0.3,0.6,0.6,0.9c0.2,0.3,0.5,0.6,0.8,0.9c1.6,1.5,4.2,2.4,7.8,2.8
		c0.5,0.1,0.9,0.1,1.4,0.1c1.3,0.1,2.7,0.1,4.3,0.1c0.4,0,0.9,0,1.3,0c0.2,0,0.5,0,0.7,0c0.2,0,0.4,0,0.6,0c0.1,0,0.2,0,0.3,0
		c0.2,0,0.5,0,0.7,0c0,0,0.1,0,0.1,0c0.2,0,0.5,0,0.7,0c0.3,0,0.6,0,0.9-0.1c4.2-0.4,7.3-1.2,9.7-2.9c0.4-0.3,0.8-0.6,1.1-0.9
		c0.1-0.1,0.1-0.1,0.2-0.2c0.2-0.2,0.5-0.5,0.7-0.7c1.8-2,3.2-4.7,4.3-8.3c0.6-1.9,1.1-4.1,1.6-6.6c0.2-0.9,0.3-1.7,0.5-2.6
		c0.3-1.5,0.5-2.8,0.6-4.1c0-0.1,0-0.2,0-0.2c1-9.4-1.9-12.3-11.9-12.9c-0.6,0-1.3-0.1-1.9-0.1c-0.7,0-1.4,0-2.2,0
		c-8.5,0-13.6,1.2-17,4.8c-0.1,0.1-0.1,0.2-0.2,0.2c-0.2,0.3-0.5,0.5-0.7,0.8c-0.2,0.3-0.4,0.6-0.6,0.9c0,0.1-0.1,0.1-0.1,0.2
		c0,0.1-0.1,0.1-0.1,0.2c-0.1,0.2-0.3,0.5-0.4,0.7c-0.2,0.3-0.4,0.7-0.5,1C278.6,78.9,278.5,79.2,278.4,79.4z"/>
</g>
<g id="SPLINE_92_">
	<path fill="none" stroke="#000000" stroke-width="0" stroke-linecap="round" stroke-linejoin="round" stroke-miterlimit="10" d="
		M287.7,89.8c0-0.1,0-0.1,0-0.2c0.1-0.4,0.2-0.8,0.2-1.2c0.1-0.3,0.1-0.7,0.2-1c0-0.1,0-0.1,0-0.2c0.1-0.3,0.2-0.7,0.2-1
		c0.1-0.4,0.2-0.8,0.3-1.2c0-0.1,0-0.1,0.1-0.2c0-0.1,0.1-0.3,0.1-0.4c0.1-0.3,0.2-0.6,0.3-0.9c0.1-0.3,0.3-0.7,0.5-1
		c0-0.1,0.1-0.1,0.1-0.2c0.2-0.3,0.3-0.5,0.5-0.8c0.2-0.3,0.4-0.5,0.7-0.7c1.2-1,2.8-1.3,5.4-1.3c5.8,0,6,1.7,4.2,10.1
		c-0.6,3-1.1,5.1-1.8,6.6c-1,2.2-2.2,3.1-4.6,3.3c-0.6,0.1-1.3,0.1-2,0.1c-2.6,0-4.2-0.3-4.9-1.4C286.5,97.1,286.8,94.5,287.7,89.8z
		"/>
</g>
<g id="SPLINE_93_">
	<path fill="none" stroke="#000000" stroke-width="0" stroke-linecap="round" stroke-linejoin="round" stroke-miterlimit="10" d="
		M320.3,125.9h3.2h0.9l4.7-22.6h0.6c0.9,5,4.2,6.1,8.4,6.3c0.3,0,0.6,0,0.8,0c9.2,0,14.1-3.7,16.8-12.9c0.3-1.1,0.6-2.3,0.9-3.6
		l1.8-8.9c0-0.2,0.1-0.3,0.1-0.5c1.9-9.9-2.5-13.8-11.5-13.8c-2.9,0-5.5,0.4-7.7,1.6c-0.1,0.1-0.2,0.1-0.3,0.2
		c-1.5,0.9-2.7,2.2-3.8,4.1c-0.1,0.2-0.2,0.4-0.3,0.7h-0.6l0.3-1.3l0.3-1.2l0.9-3.7h-6h-6.4l-2.4,11.8l-0.3,1.7l-1.1,5.4l-1.8,8.9
		l-3.5,16.9l-0.5,2.3c0,0-0.2,0.9-0.2,0.9l-0.2,0.9l-1.4,6.9h6.5h0.9H320.3z"/>
</g>
<g id="SPLINE_94_">
	<path fill="none" stroke="#000000" stroke-width="0" stroke-linecap="round" stroke-linejoin="round" stroke-miterlimit="10" d="
		M331.9,89.8c1.6-7.6,2.8-9.8,7.2-10.1c0.3,0,0.7,0,1.1,0c5.4,0,6.2,1.8,5.4,6.7c-0.2,1-0.4,2.2-0.7,3.4c-0.2,1-0.4,2-0.7,2.8
		c-1.7,6.3-3.8,7.2-8.3,7.2c-1,0-1.8-0.1-2.4-0.3C330.4,98.6,330.8,95.2,331.9,89.8z"/>
</g>
</svg>
